<svg id="Layer_1" data-name="Layer 1" xmlns="http://www.w3.org/2000/svg" viewBox="0 0 100 100.3"><defs><style>.cls-1{fill:#333;}</style></defs><title>1</title><rect class="cls-1" x="46.31" y="63.97" width="7.38" height="7.38"/><path class="cls-1" d="M99.09,10.75,100,3.42a410,410,0,0,0-100,0l.91,7.33a398,398,0,0,1,45.4-2.94v8h-3v6.39A33.57,33.57,0,0,0,16.52,55v.62A59.81,59.81,0,0,0,17,63c.79,6.35,3,12.93,8.27,17.82A19.76,19.76,0,0,0,8,100.3h7.38A12.31,12.31,0,0,1,27.67,88H72.36A12.29,12.29,0,0,1,84.62,100.3H92A19.68,19.68,0,0,0,74.73,80.81C80,75.92,82.19,69.34,83,63a59.81,59.81,0,0,0,.5-7.38V55A33.55,33.55,0,0,0,56.71,22.17V15.78h-3v-8A400.84,400.84,0,0,1,99.09,10.75ZM61.83,79.62H38.17C30.11,77.26,25.77,72,24.41,62.46a400.93,400.93,0,0,1,51.18,0C74.27,71.94,69.92,77.23,61.83,79.62ZM76.1,55v.09c-7.45-.48-14.93-.72-22.41-.79V38.42H46.31V54.29c-7.48.07-15,.31-22.4.79V55A26.1,26.1,0,1,1,76.1,55Z"/></svg>