<svg id="Layer_1" data-name="Layer 1" xmlns="http://www.w3.org/2000/svg" viewBox="0 0 100 100.3"><defs><style>.cls-1{fill:#333;}</style></defs><title>AS</title><path class="cls-1" d="M57.61,9a13.75,13.75,0,0,0-3.88-1.75V.3H46.27V7.23a13.84,13.84,0,0,0-6.7,22.45,14.57,14.57,0,0,0,2.7,2.37L40.52,51.93H0V100.3H43.81l5.75-65.91a2.12,2.12,0,0,0,.44,0,2.42,2.42,0,0,0,.47,0l5.75,65.91H100V9ZM36.91,92.89H7.41V59.33H39.84ZM56.43,20.56A6.4,6.4,0,0,1,50.21,27h-.39a6.4,6.4,0,0,1-3.55-1.22,6.32,6.32,0,0,1-2.67-5.18v-.3a6.39,6.39,0,0,1,1.54-3.88,7.7,7.7,0,0,1,1.13-1,6.45,6.45,0,0,1,10.16,4.89ZM92.59,92.89H63.06l-3.55-41L57.76,32.05a13.88,13.88,0,0,0,6.13-11.49,13.7,13.7,0,0,0-.65-4.18H92.59Z"/><rect class="cls-1" x="77.94" y="30.3" width="8.18" height="12.1"/><rect class="cls-1" x="64.42" y="30.3" width="8.18" height="12.1"/><rect class="cls-1" x="77.94" y="49.15" width="8.18" height="12.1"/><rect class="cls-1" x="64.42" y="49.15" width="8.18" height="12.1"/><rect class="cls-1" x="26" y="65.05" width="8.18" height="12.1"/><rect class="cls-1" x="12.48" y="65.05" width="8.18" height="12.1"/><path class="cls-1" d="M27.89,34.42l-6.28,3.94A33.44,33.44,0,0,1,18.88,8.12l6.88,2.75a25.65,25.65,0,0,0-1.87,9.69A26.05,26.05,0,0,0,27.89,34.42Z"/><path class="cls-1" d="M36,29.33l-6.3,3.94a23.91,23.91,0,0,1-1.93-21.6l6.87,2.76A16.45,16.45,0,0,0,36,29.33Z"/></svg>