<svg id="Layer_1" data-name="Layer 1" xmlns="http://www.w3.org/2000/svg" viewBox="0 0 100 100.3"><defs><style>.cls-1{fill:#333;}</style></defs><title>A</title><path class="cls-1" d="M74,48.26V.15H24v64H0v36H100V48.29ZM31.41,7.56H66.6v40.7H48v15.9H31.41Zm-24,85.16V71.57H48V92.72Zm85.18,0H55.42V55.57H92.59Z"/><path class="cls-1" d="M73.17,72.55A2.42,2.42,0,1,0,75.58,75,2.41,2.41,0,0,0,73.17,72.55Z"/><path class="cls-1" d="M75.72,79.3l3.7,6.4a12.5,12.5,0,0,0,6.16-10.31v-.45H78.21A5,5,0,0,1,75.72,79.3Z"/><path class="cls-1" d="M67.28,64.1a.39.39,0,0,0-.18.06.27.27,0,0,1-.12.06l3.59,6.19v.06l.09.15a5,5,0,0,1,5,0l3.53-6.13.08-.12.09-.15a12.89,12.89,0,0,0-6.22-1.63A12.37,12.37,0,0,0,67.28,64.1Z"/><path class="cls-1" d="M68.17,74.94H60.78A12.44,12.44,0,0,0,67,85.7l3.62-6.22h0l.09-.15A5,5,0,0,1,68.17,74.94Z"/></svg>