<svg id="Layer_1" data-name="Layer 1" xmlns="http://www.w3.org/2000/svg" viewBox="0 0 100 100.3"><defs><style> </style></defs><title>SA</title><polygon class="cls-1" points="22.57 0.15 0 0.15 0 22.68 7.41 22.68 7.41 7.56 22.57 7.56 22.57 0.15"/><polygon class="cls-1" points="77.5 0.15 77.5 7.56 92.59 7.56 92.59 22.68 100 22.68 100 0.15 77.5 0.15"/><polygon class="cls-1" points="22.57 92.74 7.41 92.74 7.41 77.62 0 77.62 0 100.15 22.57 100.15 22.57 92.74"/><polygon class="cls-1" points="92.59 77.62 92.59 92.74 77.5 92.74 77.5 100.15 100 100.15 100 77.62 92.59 77.62"/><path class="cls-1" d="M87.26,45.07A9.59,9.59,0,0,0,77.09,28.8L64.43,36.71,36.94,17.4,20.24,27.84,42.56,50.38l-7.77,4.86-14.44-10L8,52.92l18.73,30ZM36.75,24.59,58.9,40.16l-11.13,7L29.77,29ZM84.08,40,28.65,74.63,16.27,54.83l3.92-2.46,14.45,10L80.27,33.88A3.6,3.6,0,0,1,84.08,40Z"/></svg>