<svg id="Layer_1" data-name="Layer 1" xmlns="http://www.w3.org/2000/svg" viewBox="0 0 100 100.34"><title>axz</title><rect x="12.64" y="72.69" width="31.67" height="4.46"/><rect x="12.64" y="81.85" width="21.51" height="4.46"/><path d="M76.65,53.5V0H0V100.23H74.48c.69.06,1.39.11,2.1.11a23.42,23.42,0,0,0,.07-46.84ZM59.41,92.8h-52V7.43H69.22V54.7a23.37,23.37,0,0,0-9.81,38.1Zm17.17.11a16,16,0,1,1,16-16A16,16,0,0,1,76.58,92.91Z"/><polygon points="72.51 78.71 68.63 74.83 63.37 80.08 72.51 89.22 89.79 71.94 84.53 66.69 72.51 78.71"/><polygon points="36.55 35.21 36.55 41.08 36.55 41.08 39.61 41.08 39.61 35.21 36.55 35.21 36.55 35.21"/><polygon points="36.55 43.43 36.55 49.3 36.55 49.3 39.61 49.3 39.61 43.43 36.55 43.43 36.55 43.43"/><polygon points="36.55 24.63 36.55 24.63 39.61 24.63 39.61 18.76 39.61 18.76 36.55 18.76 36.55 24.63"/><polygon points="36.55 26.98 36.55 32.85 36.55 32.85 39.61 32.85 39.61 26.98 36.55 26.98 36.55 26.98"/><path d="M24.91,13.34l-7.5,41.38H58.76l-7.5-41.38ZM55.09,51.65h-34l2.38-13.08,4-22.16H48.69L54,45.67Z"/></svg>