<svg id="Layer_1" data-name="Layer 1" xmlns="http://www.w3.org/2000/svg" viewBox="0 0 100 100"><title>a</title><polygon points="22.57 0 0 0 0 22.53 7.41 22.53 7.41 7.41 22.57 7.41 22.57 0"/><polygon points="77.5 0 77.5 7.41 92.59 7.41 92.59 22.53 100 22.53 100 0 77.5 0"/><polygon points="22.57 92.59 7.41 92.59 7.41 77.47 0 77.47 0 100 22.57 100 22.57 92.59"/><polygon points="92.59 77.47 92.59 92.59 77.5 92.59 77.5 100 100 100 100 77.47 92.59 77.47"/><path d="M87.26,44.92A9.59,9.59,0,0,0,77.09,28.65L64.43,36.57,36.94,17.25,20.24,27.69,42.56,50.23l-7.77,4.86-14.44-10L8,52.77l18.73,30ZM36.75,24.45,58.9,40,47.77,47l-18-18.17ZM84.08,39.84,28.65,74.48,16.27,54.68l3.92-2.46,14.45,10L80.27,33.74a3.6,3.6,0,1,1,3.81,6.1Z"/></svg>