<svg id="Layer_1" data-name="Layer 1" xmlns="http://www.w3.org/2000/svg" viewBox="0 0 100 99.93"><title>Aviation Safety Operations</title><rect x="46.31" y="63.6" width="7.38" height="7.38"/><path d="M99.09,10.39,100,3.06a410,410,0,0,0-100,0l.91,7.33a398,398,0,0,1,45.4-2.95v8h-3v6.39A33.56,33.56,0,0,0,16.52,54.62v.62a59.84,59.84,0,0,0,.5,7.39c.79,6.34,3,12.93,8.27,17.82A19.76,19.76,0,0,0,8,99.93h7.38A12.31,12.31,0,0,1,27.67,87.68H72.36A12.28,12.28,0,0,1,84.62,99.93H92A19.67,19.67,0,0,0,74.73,80.45C80,75.56,82.19,69,83,62.63a59.84,59.84,0,0,0,.5-7.39v-.62A33.54,33.54,0,0,0,56.71,21.81V15.42h-3v-8A400.85,400.85,0,0,1,99.09,10.39ZM61.83,79.26H38.17c-8.06-2.37-12.4-7.65-13.76-17.16a397.29,397.29,0,0,1,51.18,0C74.27,71.58,69.92,76.86,61.83,79.26ZM76.1,54.62v.09c-7.45-.48-14.93-.71-22.41-.78V38.06H46.31V53.93c-7.48.07-15,.3-22.4.78v-.09a26.1,26.1,0,1,1,52.19,0Z"/></svg>