<svg id="Layer_1" data-name="Layer 1" xmlns="http://www.w3.org/2000/svg" viewBox="0 0 100 100"><title>as</title><path d="M57.61,8.68a14,14,0,0,0-3.88-1.75V0H46.27V6.93a14,14,0,0,0-3.88,1.75,13.85,13.85,0,0,0-2.82,20.7,14.57,14.57,0,0,0,2.7,2.37L40.52,51.63H0V100H43.81l5.75-65.91a2.12,2.12,0,0,0,.44,0,2.42,2.42,0,0,0,.47,0L56.22,100H100V8.68ZM36.91,92.59H7.41V59H39.84ZM56.43,20.26a6.4,6.4,0,0,1-6.22,6.4h-.39a6.4,6.4,0,0,1-3.55-1.22,6.32,6.32,0,0,1-2.67-5.18V20a6.39,6.39,0,0,1,1.54-3.88,7.1,7.1,0,0,1,1.13-1A6.45,6.45,0,0,1,56.43,20ZM92.59,92.59H63.06l-3.55-41L57.76,31.75a13.82,13.82,0,0,0,5.48-15.67H92.59Z"/><rect x="77.94" y="30" width="8.18" height="12.1"/><rect x="64.42" y="30" width="8.18" height="12.1"/><rect x="77.94" y="48.86" width="8.18" height="12.1"/><rect x="64.42" y="48.86" width="8.18" height="12.1"/><rect x="26" y="64.75" width="8.18" height="12.1"/><rect x="12.48" y="64.75" width="8.18" height="12.1"/><path d="M27.89,34.12l-6.28,3.94A33.44,33.44,0,0,1,18.88,7.82l6.88,2.75a25.69,25.69,0,0,0-1.87,9.69A26,26,0,0,0,27.89,34.12Z"/><path d="M36,29,29.73,33a23.91,23.91,0,0,1-1.93-21.6l6.87,2.76A16.45,16.45,0,0,0,36,29Z"/></svg>