<svg id="Layer_1" data-name="Layer 1" xmlns="http://www.w3.org/2000/svg" viewBox="0 0 100 99.97"><title>Dangerous Goods</title><path d="M74,48.1V0H24V64H0v36H100V48.1ZM31.4,7.41H66.59V48.1H48V64H31.4Zm-24,85.16V71.42H48V92.57Zm85.18,0H55.42V55.42H92.59Z"/><path d="M73.16,72.4a2.42,2.42,0,0,0,0,4.84,2.42,2.42,0,1,0,0-4.84Z"/><path d="M75.71,79.15l3.7,6.39a12.45,12.45,0,0,0,6.16-10.3V75c0-.06,0-.12,0-.18H78.23A5,5,0,0,1,75.71,79.15Z"/><path d="M67.27,64a.43.43,0,0,0-.18.06.23.23,0,0,1-.12.06l3.59,6.19,0,.06.09.15a5,5,0,0,1,5,0l3.53-6.13.08-.12.09-.15a12.83,12.83,0,0,0-6.22-1.63A12.36,12.36,0,0,0,67.27,64Z"/><path d="M68.16,74.79H60.78A12.4,12.4,0,0,0,67,85.54l3.62-6.22v0l.09-.15A5,5,0,0,1,68.16,74.79Z"/></svg>