<svg id="Layer_1" data-name="Layer 1" xmlns="http://www.w3.org/2000/svg" viewBox="0 0 100 100.3"><defs><style> </style></defs><title>ASACA</title><rect class="cls-1" x="12.64" y="72.65" width="31.67" height="4.46"/><rect class="cls-1" x="12.64" y="81.81" width="21.51" height="4.46"/><path class="cls-1" d="M76.65,53.46V0H0V100.3H76.58a23.42,23.42,0,0,0,.07-46.84ZM59.41,92.76h-52V7.39H69.22V54.66a23.37,23.37,0,0,0-9.81,38.1Zm17.17.11a16,16,0,1,1,16-16A16,16,0,0,1,76.58,92.87Z"/><polygon class="cls-1" points="72.51 78.67 68.63 74.79 63.37 80.04 72.51 89.18 89.79 71.9 84.53 66.64 72.51 78.67"/><polygon class="cls-1" points="36.55 35.17 36.55 41.04 36.55 41.04 39.61 41.04 39.61 35.17 36.55 35.17 36.55 35.17"/><polygon class="cls-1" points="36.55 43.39 36.55 49.26 36.55 49.26 39.61 49.26 39.61 43.39 36.55 43.39 36.55 43.39"/><polygon class="cls-1" points="36.55 24.59 36.55 24.59 39.61 24.59 39.61 18.72 39.61 18.72 36.55 18.72 36.55 24.59"/><polygon class="cls-1" points="36.55 26.94 36.55 32.81 36.55 32.81 39.61 32.81 39.61 26.94 36.55 26.94 36.55 26.94"/><path class="cls-1" d="M24.91,13.3l-7.5,41.38H58.76L51.26,13.3ZM55.09,51.61h-34l2.38-13.09,4-22.15H48.69L54,45.63Z"/></svg>