<svg id="Layer_1" data-name="Layer 1" xmlns="http://www.w3.org/2000/svg" viewBox="0 0 100 100.3"><defs><style> </style></defs><title>homepage final</title><path class="cls-1" d="M74.57,30.21H25.43L0,100.3H100ZM8.91,95.1,31.64,35.41H68.36L91.09,95.1Z"/><rect class="cls-1" x="46.43" y="39.39" width="7.13" height="9.95"/><rect class="cls-1" x="46.43" y="53.33" width="7.13" height="9.92"/><rect class="cls-1" x="46.43" y="67.26" width="7.13" height="9.92"/><rect class="cls-1" x="46.43" y="81.16" width="7.13" height="9.95"/><path class="cls-1" d="M47.11,0V5.91a10.07,10.07,0,0,0-6.71,6.71H21.67v5.85H40.39a10.06,10.06,0,0,0,19.28,0H78.33V12.62H59.66A10.16,10.16,0,0,0,53,5.92V0ZM54.3,15.54v0A4.27,4.27,0,1,1,50,11.28h0A4.3,4.3,0,0,1,54.3,15.54Z"/></svg>