<svg id="Layer_1" data-name="Layer 1" xmlns="http://www.w3.org/2000/svg" viewBox="0 0 17.5 17.5"><title>insta</title><path d="M12,784.25H5.47A5.47,5.47,0,0,0,0,789.72v6.56a5.47,5.47,0,0,0,5.47,5.47H12a5.47,5.47,0,0,0,5.47-5.47v-6.56A5.47,5.47,0,0,0,12,784.25Zm3.83,12A3.84,3.84,0,0,1,12,800.11H5.47a3.84,3.84,0,0,1-3.83-3.83v-6.56a3.84,3.84,0,0,1,3.83-3.83H12a3.84,3.84,0,0,1,3.83,3.83Z" transform="translate(0 -784.25)"/><path d="M8.75,788.63A4.38,4.38,0,1,0,13.12,793,4.36,4.36,0,0,0,8.75,788.63Zm0,7.1A2.73,2.73,0,1,1,11.48,793,2.73,2.73,0,0,1,8.75,795.73Z" transform="translate(0 -784.25)"/><circle cx="13.45" cy="4.05" r="0.58"/></svg>