<svg id="Layer_1" data-name="Layer 1" xmlns="http://www.w3.org/2000/svg" viewBox="0 0 17.5 17.5"><title>insta</title><path d="M12,0H5.47A5.47,5.47,0,0,0,0,5.47V12A5.47,5.47,0,0,0,5.47,17.5H12A5.47,5.47,0,0,0,17.5,12V5.47A5.47,5.47,0,0,0,12,0Zm3.83,12A3.84,3.84,0,0,1,12,15.86H5.47A3.84,3.84,0,0,1,1.64,12V5.47A3.84,3.84,0,0,1,5.47,1.64H12a3.84,3.84,0,0,1,3.83,3.83Z"/><path d="M8.75,4.38a4.37,4.37,0,1,0,4.37,4.37A4.36,4.36,0,0,0,8.75,4.38Zm0,7.1a2.73,2.73,0,1,1,2.73-2.73A2.73,2.73,0,0,1,8.75,11.48Z"/><circle cx="13.45" cy="4.05" r="0.58"/></svg>