<svg id="Layer_1" data-name="Layer 1" xmlns="http://www.w3.org/2000/svg" viewBox="0 0 20.95 17.15"><title>tw</title><path d="M7.82,801.57A17.64,17.64,0,0,1,5,801.35,13,13,0,0,1,1.24,800L0,799.29l1.34-.44c1.47-.48,2.37-.78,3.47-1.25a4.64,4.64,0,0,1-2.37-2.75l-.31-1,.25,0a5,5,0,0,1-.58-.72,4.41,4.41,0,0,1-.75-2.63l.06-.83.5.2a4.42,4.42,0,0,1-.45-1.26,4.76,4.76,0,0,1,.51-3.23l.43-.79.58.69a10.59,10.59,0,0,0,6.89,3.88,4,4,0,0,1,.25-2.19,4.09,4.09,0,0,1,1.66-1.91,5,5,0,0,1,2.91-.71,4.61,4.61,0,0,1,2.85,1.17,8.48,8.48,0,0,0,1-.35l.82-.29,1.19-.41-.78,2.22h.16l1.28,0-.75,1c-.05.06-.06.07-.07.1s-.14.2-1.18,1.59a1.92,1.92,0,0,0-.36,1.27,12,12,0,0,1-.66,4.84,8.52,8.52,0,0,1-2.3,3.4,10.1,10.1,0,0,1-4.81,2.33,15.27,15.27,0,0,1-3,.29Zm0,0" transform="translate(0 -784.43)"/></svg>