<svg id="Layer_1" data-name="Layer 1" xmlns="http://www.w3.org/2000/svg" viewBox="0 0 21.41 17.52"><title>tw</title><path d="M8,17.52a18.4,18.4,0,0,1-2.84-.22,13.54,13.54,0,0,1-3.88-1.41L0,15.19l1.37-.45c1.5-.49,2.42-.8,3.55-1.28a4.72,4.72,0,0,1-2.43-2.81l-.32-1,.27,0A4.63,4.63,0,0,1,1.07,6.3l.06-.85.51.2a4.72,4.72,0,0,1-.46-1.29A4.93,4.93,0,0,1,1.7,1.07L2.14.26l.6.7a10.82,10.82,0,0,0,7,4A4.21,4.21,0,0,1,10,2.69,4.16,4.16,0,0,1,11.73.74a5.12,5.12,0,0,1,3-.73,4.75,4.75,0,0,1,2.92,1.2A10.11,10.11,0,0,0,18.68.86l.84-.31L20.74.13l-.8,2.28h.16l1.31-.06L20.64,3.4c-.05.06-.06.07-.07.1s-.14.21-1.2,1.62A2,2,0,0,0,19,6.42a12.39,12.39,0,0,1-.68,4.95A8.89,8.89,0,0,1,16,14.85a10.5,10.5,0,0,1-4.92,2.37,15.22,15.22,0,0,1-3.07.3Zm0,0"/></svg>