<svg id="Layer_1" data-name="Layer 1" xmlns="http://www.w3.org/2000/svg" viewBox="0 0 19.21 13.39"><defs><style>.cls-1{fill-rule:evenodd;}</style></defs><title>yt</title><path class="cls-1" d="M18.88,2.15A2.41,2.41,0,0,0,16.8.27,63.83,63.83,0,0,0,9.61,0a64.1,64.1,0,0,0-7.2.27A2.41,2.41,0,0,0,.34,2.15,20.35,20.35,0,0,0,0,6.7a20.31,20.31,0,0,0,.34,4.54,2.43,2.43,0,0,0,2.07,1.89,66.46,66.46,0,0,0,7.2.26,66.27,66.27,0,0,0,7.19-.26,2.45,2.45,0,0,0,2.08-1.89,20.91,20.91,0,0,0,.33-4.54,20.35,20.35,0,0,0-.33-4.55ZM7.13,9.68V3.32c2,1.07,4.06,2.12,6.11,3.19L7.13,9.68Zm0,0"/></svg>