<svg id="Layer_1" data-name="Layer 1" xmlns="http://www.w3.org/2000/svg" viewBox="0 0 19.21 13.39"><defs><style>.cls-1{fill-rule:evenodd;}</style></defs><title>youtube</title><path class="cls-1" d="M18.88,788.46a2.42,2.42,0,0,0-2.08-1.89,63.83,63.83,0,0,0-7.19-.27,64.1,64.1,0,0,0-7.2.27,2.42,2.42,0,0,0-2.07,1.89,30.48,30.48,0,0,0,0,9.08,2.42,2.42,0,0,0,2.07,1.89,64,64,0,0,0,7.2.27,63.83,63.83,0,0,0,7.19-.27,2.43,2.43,0,0,0,2.08-1.89,20.82,20.82,0,0,0,.33-4.54,20.22,20.22,0,0,0-.33-4.54ZM7.13,796v-6.35l6.11,3.18L7.13,796Zm0,0" transform="translate(0 -786.3)"/></svg>