<?xml version="1.0" standalone="no"?>
<!DOCTYPE svg PUBLIC "-//W3C//DTD SVG 1.1//EN" "http://www.w3.org/Graphics/SVG/1.1/DTD/svg11.dtd" >
<svg xmlns="http://www.w3.org/2000/svg">
<metadata>Generated by IcoMoon</metadata>
<defs>
<font id="dcaa-icons" horiz-adv-x="1024">
<font-face units-per-em="1024" ascent="960" descent="-64" />
<missing-glyph horiz-adv-x="1024" />
<glyph unicode="&#x20;" horiz-adv-x="512" d="" />
<glyph unicode="&#xe900;" glyph-name="android" horiz-adv-x="826" d="M536.381 858.043l44.822 74.867c1.578 2.603 2.512 5.748 2.512 9.112 0 9.82-7.961 17.781-17.781 17.781-6.457 0-12.109-3.441-15.224-8.59l-0.045-0.079-49.254-78.807c-26.818 9.989-57.802 15.77-90.136 15.77s-63.318-5.78-91.975-16.364l1.839 0.595-45.314 78.807c-2.543 6.878-9.045 11.693-16.672 11.693-9.793 0-17.732-7.939-17.732-17.732 0-4.724 1.847-9.016 4.858-12.194l-0.008 0.008 44.822-74.867c-87.992-45.361-147.239-135.389-147.763-239.305v-0.071c0-0.002 0-0.004 0-0.007 0-9.892 7.881-17.943 17.706-18.217l0.025-0.001h503.873c9.851 0.275 17.732 8.326 17.732 18.217 0 0.002 0 0.005 0 0.007v0c-0.524 103.988-59.771 194.016-146.254 238.668l-1.509 0.708zM180.271 636.398c8.196 122.25 109.367 218.309 232.974 218.309s224.778-96.059 232.935-217.598l0.038-0.711zM538.351 756.087h-23.642c-6.529 0-11.821-5.292-11.821-11.821v0-24.135c0-6.529 5.292-11.821 11.821-11.821h24.135c6.529 0 11.821 5.292 11.821 11.821v0 24.135c-0.272 6.585-5.676 11.821-12.304 11.821-0.003 0-0.007 0-0.010 0h0.001zM311.288 756.087h-23.642c-6.529 0-11.821-5.292-11.821-11.821v0-24.135c0-6.529 5.292-11.821 11.821-11.821v0h23.642c6.529 0 11.821 5.292 11.821 11.821v0 24.135c0 6.529-5.292 11.821-11.821 11.821v0zM664.935 582.711h-503.38c-0.008 0-0.018 0-0.027 0-9.446 0-17.167-7.387-17.702-16.699l-0.002-0.047v-362.020c0-47.876 38.811-86.688 86.688-86.688v0h21.179v-107.867c0-39.716 32.196-71.911 71.911-71.911s71.911 32.196 71.911 71.911v0 106.39h35.463v-107.867c0-39.716 32.196-71.911 71.911-71.911s71.911 32.196 71.911 71.911v0 107.867h21.179c47.876 0 86.688 38.811 86.688 86.688v0 363.498c0.004 0.147 0.007 0.319 0.007 0.493 0 9.793-7.939 17.732-17.732 17.732-0.002 0-0.005 0-0.007 0v0zM646.711 202.467c0-27.202-22.052-49.254-49.254-49.254v0h-38.911c-9.956-0.267-17.957-8.268-18.224-18.199l-0.001-0.025v-125.599c0-19.858-16.098-35.956-35.956-35.956s-35.956 16.098-35.956 35.956v124.121c0 0.002 0 0.004 0 0.007 0 9.892-7.881 17.943-17.706 18.217l-0.025 0.001h-73.389c-9.956-0.267-17.957-8.268-18.224-18.199l-0.001-0.025v-125.599c0.157-1.261 0.246-2.721 0.246-4.201 0-19.858-16.098-35.956-35.956-35.956s-35.956 16.098-35.956 35.956c0 1.48 0.089 2.94 0.263 4.374l-0.017-0.173v125.599c-0.267 9.956-8.268 17.957-18.199 18.224l-0.025 0.001h-38.911c-27.202 0-49.254 22.052-49.254 49.254v0 344.781h466.932zM763.444 582.711c-34.819 0-63.046-28.227-63.046-63.046v0-249.228c0-34.819 28.227-63.046 63.046-63.046s63.046 28.227 63.046 63.046v0 249.228c0 34.819-28.227 63.046-63.046 63.046v0zM790.534 270.438c0-14.961-12.129-27.090-27.090-27.090v0c-13.864 1.303-24.627 12.883-24.627 26.978 0 0.039 0 0.079 0 0.118v-0.006 249.228c0 0.001 0 0.003 0 0.004 0 14.788 11.849 26.809 26.572 27.085h0.026c14.961 0 27.090-12.129 27.090-27.090v0zM63.046 582.711c-34.819 0-63.046-28.227-63.046-63.046v0-249.228c-0.157-1.668-0.246-3.607-0.246-5.567 0-34.819 28.227-63.046 63.046-63.046s63.046 28.227 63.046 63.046c0 1.96-0.089 3.899-0.264 5.813l0.018-0.246v249.228c0.001 0.146 0.002 0.319 0.002 0.493 0 34.547-28.006 62.553-62.553 62.553-0.001 0-0.001 0-0.002 0v0zM89.643 270.438c0.157-1.095 0.246-2.359 0.246-3.644 0-14.961-12.129-27.090-27.090-27.090s-27.090 12.129-27.090 27.090c0 1.285 0.090 2.55 0.263 3.787l-0.016-0.143v249.228c-0.157 1.095-0.246 2.359-0.246 3.644 0 14.961 12.129 27.090 27.090 27.090s27.090-12.129 27.090-27.090c0-1.285-0.090-2.55-0.263-3.787l0.016 0.143z" />
<glyph unicode="&#xe901;" glyph-name="apple" horiz-adv-x="806" d="M612.334 939.343v20.657h-22.133c-120.826-19.050-212.428-121.491-214.437-245.708l-0.003-0.209v-22.133h22.133s226.736 16.722 214.44 247.393zM573.479 914.259c0.001-0.265 0.002-0.579 0.002-0.893 0-91.308-67.247-166.91-154.917-179.98l-0.997-0.122c8.752 88.105 71.585 159.409 154.477 180.683l1.435 0.312zM804.15 222.248l-12.296 3.935c-77.007 21.953-132.443 91.683-132.443 174.361 0 73.864 44.246 137.394 107.68 165.531l1.154 0.457 18.69 7.869-10.329 18.198c-31.684 48.030-79.502 83.207-135.597 98.003l-1.625 0.364c-17.927 3.59-38.536 5.645-59.626 5.645-66.61 0-128.433-20.498-179.504-55.529l1.082 0.701c-36.396 23.116-158.371 89.514-253.787 23.116-18.69-10.329-220.342-130.828-115.581-456.915 3.443-7.378 76.234-178.536 162.797-242.966 20.365-16.983 46.812-27.294 75.667-27.294 28.032 0 53.792 9.731 74.085 25.999l-0.233-0.181c11.804 4.918 90.989 35.412 141.157 0 23.88-16.371 53.251-26.387 84.921-27.048l0.166-0.003c0.409-0.006 0.893-0.009 1.377-0.009 29.106 0 55.345 12.273 73.825 31.926l0.049 0.053c68.878 62.972 122.894 141.013 156.962 228.993l1.409 4.137v3.935zM619.712-3.012v0c-42.79-44.757-108.204 0-110.663 0-22.098 15.132-49.41 24.165-78.832 24.165-1.508 0-3.010-0.024-4.507-0.071l0.219 0.005c-35.681-0.577-69.409-8.302-100.021-21.799l1.654 0.65h-2.951c-13.85-12.163-32.126-19.584-52.134-19.584s-38.284 7.421-52.224 19.661l0.089-0.077c-78.202 57.053-147.55 225.752-147.55 225.752-98.367 304.938 90.006 404.78 98.367 409.207v0c91.481 61.479 222.309-27.051 223.293-28.035l10.82-7.378 10.82 6.394c46.336 33.642 104.35 53.818 167.075 53.818 18.135 0 35.876-1.686 53.074-4.911l-1.775 0.277c41.19-11.025 75.91-34.258 101.027-65.531l0.291-0.375c-65.294-38.923-108.351-109.172-108.351-189.478 0-91.879 56.361-170.594 136.396-203.457l1.465-0.532c-33.76-78.994-81.537-146.006-140.773-200.81l-0.384-0.351z" />
<glyph unicode="&#xe902;" glyph-name="arrow-left" horiz-adv-x="2054" d="M1542.869-64h-1030.975c-278.317 5.834-501.703 232.83-501.703 512s223.385 506.166 501.159 511.991l0.543 0.009h1030.975c3.096 0.067 6.745 0.106 10.403 0.106 282.828 0 512.106-229.278 512.106-512.106s-229.278-512.106-512.106-512.106c-3.658 0-7.307 0.038-10.946 0.115l0.543-0.009zM511.894 938.865c-266.738-5.71-480.784-223.291-480.784-490.865s214.046-485.155 480.253-490.856l0.532-0.009h1030.975c3.032-0.067 6.604-0.106 10.186-0.106 271.156 0 490.97 219.815 490.97 490.97s-219.815 490.97-490.97 490.97c-3.582 0-7.154-0.038-10.718-0.115l0.532 0.009zM906.277 700.671l41.002-41.002-200.573-200.573h615.668v-57.91h-615.457l185.99-186.201-41.002-41.002-256.159 256.159 270.53 270.53z" />
<glyph unicode="&#xe903;" glyph-name="arrow-right" horiz-adv-x="2054" d="M511.894 960h1030.975c3.096 0.067 6.745 0.106 10.403 0.106 282.828 0 512.106-229.278 512.106-512.106s-229.278-512.106-512.106-512.106c-3.658 0-7.307 0.038-10.946 0.115l0.543-0.009h-1030.975c-278.317 5.834-501.703 232.83-501.703 512s223.385 506.166 501.159 511.991l0.543 0.009zM1542.869-42.865c3.032-0.067 6.604-0.106 10.186-0.106 271.156 0 490.97 219.815 490.97 490.97s-219.815 490.97-490.97 490.97c-3.582 0-7.154-0.038-10.718-0.115l0.532 0.009h-1030.975c-266.738-5.71-480.784-223.291-480.784-490.865s214.046-485.155 480.253-490.856l0.532-0.009zM1147.43 195.329l-41.002 41.002 200.784 200.573h-615.668v58.122h615.457l-186.201 185.99 41.002 41.002 256.37-256.159-270.742-270.53z" />
<glyph unicode="&#xe904;" glyph-name="chat" horiz-adv-x="1176" d="M0 960v-795.336h387.492v-228.664l228.664 228.664h558.691v795.336zM1070.292 270.017h-497.634l-79.813-79.813v79.813h-387.492v584.63h964.938zM877.942 585.278c0-36.586-29.659-66.245-66.245-66.245s-66.245 29.659-66.245 66.245c0 36.586 29.659 66.245 66.245 66.245s66.245-29.659 66.245-66.245zM654.067 585.278c0-36.586-29.659-66.245-66.245-66.245s-66.245 29.659-66.245 66.245c0 36.586 29.659 66.245 66.245 66.245s66.245-29.659 66.245-66.245zM364.346 519.034c36.586 0 66.245 29.659 66.245 66.245s-29.659 66.245-66.245 66.245c-36.586 0-66.245-29.659-66.245-66.245v0c0.225-36.495 29.75-66.020 66.223-66.245h0.021z" />
<glyph unicode="&#xe905;" glyph-name="left" horiz-adv-x="552" d="M512.284-64.569l-512.284 512.284 512.284 512.284 39.8-40.369-471.916-471.916 471.916-471.916-39.8-40.369z" />
<glyph unicode="&#xe906;" glyph-name="login" horiz-adv-x="935" d="M651.093 499.2c51.294 48.767 83.2 117.511 83.2 193.706 0 147.512-119.582 267.093-267.093 267.093s-267.093-119.582-267.093-267.093c0-76.196 31.906-144.939 83.087-193.6l0.113-0.107c-167.223-72.807-282.236-236.174-283.306-426.529l-0.001-0.138v-136.533h938.667v133.973c-0.515 192.493-117.683 357.493-284.517 428.078l-3.057 1.148zM309.76 692.907c1.917 84.76 71.081 152.737 156.122 152.737 86.245 0 156.16-69.915 156.16-156.16 0-85.631-68.924-155.165-154.323-156.149l-0.093-0.001c-0.011 0-0.024 0-0.037 0-86.245 0-156.16 69.915-156.16 156.16 0 1.2 0.014 2.397 0.040 3.591l-0.003-0.178zM821.76 46.933h-710.827v23.040c9.556 189.346 165.405 339.252 356.267 339.252s346.711-149.906 356.232-338.401l0.034-0.851z" />
<glyph unicode="&#xe907;" glyph-name="Approving-Landing-Fields" horiz-adv-x="1021" d="M128.995 218.177h323.202v-45.516h-323.202v45.516zM128.995 124.696h219.516v-45.516h-219.516v45.516zM782.236 414.016v545.984h-782.236v-1022.877h760.091c7.042-0.612 14.185-1.123 21.431-1.123 0.106 0 0.232 0 0.357 0 132.001 0 239.008 107.008 239.008 239.008 0 131.875-106.804 238.805-238.632 239.008h-0.019zM606.297 12.948h-530.676v871.227h630.79v-482.405c-95.97-32.319-163.859-121.49-163.859-226.518 0-62.764 24.244-119.865 63.879-162.449l-0.134 0.145zM781.522 11.825c-90.18 0-163.285 73.105-163.285 163.285s73.105 163.285 163.285 163.285c90.18 0 163.285-73.105 163.285-163.285v0c0-90.18-73.105-163.285-163.285-163.285v0zM739.986 156.741l-39.597 39.597-53.68-53.578 93.276-93.276 176.348 176.348-53.68 53.578-122.668-122.668zM373.004 600.671v-59.905h31.228v59.905h-31.228zM373.004 516.784v-59.905h31.228v59.905h-31.228zM373.004 708.643v0h31.228v59.905h-31.228v-59.905zM373.004 684.661v-59.905h31.228v59.905h-31.228zM254.214 823.861l-76.54-422.295h421.989l-76.54 422.295zM562.21 432.896h-346.98l24.289 133.485 40.821 226.149h216.557l54.19-298.607z" />
<glyph unicode="&#xe908;" glyph-name="notification" horiz-adv-x="1016" d="M1015.527 66.723l-208.996 269.113v325.195c0 165.116-133.853 298.969-298.969 298.969s-298.969-133.853-298.969-298.969v0-325.195l-208.593-269.113h347.385c15.592-75.298 81.369-131.087 160.177-131.087s144.585 55.789 159.993 130.027l0.184 1.059zM292.514 270.474l24.208 28.646v363.121c0 106.512 86.345 192.857 192.857 192.857s192.857-86.345 192.857-192.857v0-363.121l22.191-28.646 75.448-97.639h-583.010zM507.562 26.377c-28.412 0.078-53.022 16.279-65.169 39.934l-0.193 0.413h130.723c-12.339-24.067-36.949-40.269-65.351-40.347h-0.011z" />
<glyph unicode="&#xe909;" glyph-name="Aviation-related-Activities" d="M231.117 960h-231.117v-230.707h75.878v154.829h155.238v75.878zM793.6 960v-75.878h154.522v-154.829h75.878v230.707h-230.4zM231.117 11.878h-155.238v154.829h-75.878v-230.707h231.117v75.878zM948.122 166.707v-154.829h-154.522v-75.878h230.4v230.707h-75.878zM893.542 500.019c27.906 17.649 46.167 48.343 46.167 83.302 0 54.255-43.982 98.238-98.238 98.238-19.296 0-37.292-5.563-52.473-15.173l0.403 0.238-129.638-81.101-281.498 197.837-171.008-106.906 228.557-230.81-79.565-49.766-147.866 102.4-126.464-78.643 191.795-307.2zM376.32 709.632l226.816-159.232-113.971-71.68-184.32 186.061zM860.979 552.038l-567.603-354.714-126.771 202.752 40.141 25.19 147.968-102.4 467.251 291.635c5.857 4.097 13.129 6.547 20.973 6.547 20.359 0 36.864-16.505 36.864-36.864 0-13.731-7.507-25.708-18.641-32.052l-0.182-0.095z" />
<glyph unicode="&#xe90a;" glyph-name="right" horiz-adv-x="552" d="M40.369 960l511.716-512.284-511.716-512.284-40.369 40.369 471.916 471.916-471.916 471.916 40.369 40.369z" />
<glyph unicode="&#xe90b;" glyph-name="search" d="M1024-29.13l-374.239 374.239c57.071 64.954 91.893 150.675 91.893 244.529 0 205.059-166.233 371.292-371.292 371.292s-371.292-166.233-371.292-371.292c0-205.059 166.233-371.292 371.292-371.292 93.854 0 179.574 34.823 244.946 92.253l-0.418-0.36 374.239-374.239zM143.409 363.772c-58.113 58.197-94.051 138.551-94.051 227.298 0 177.664 144.025 321.688 321.688 321.688s321.688-144.025 321.688-321.688c0-88.747-35.938-169.101-94.055-227.302l0.004 0.004c-58.35-59.052-139.336-95.624-228.863-95.624-88.308 0-168.305 35.583-226.435 93.192l0.024-0.024z" />
<glyph unicode="&#xe90c;" glyph-name="saperator" horiz-adv-x="40" d="M0 960h39.875v-1024h-39.875v1024z" />
<glyph unicode="&#xe90d;" glyph-name="settings" d="M1024 577.196h-199.377l141.956 141.558-183.826 182.629-141.558-140.76v199.377h-258.393v-199.377l-141.558 140.76-182.629-182.629 140.76-141.558h-199.377v-258.393h199.377l-140.76-141.558 182.629-182.629 141.558 141.956v-199.377h258.393v199.377l141.558-141.956 182.629 182.629-141.956 141.558h199.377zM938.667 404.137h-115.24c-47.018-0.145-85.078-38.294-85.078-85.333 0-23.501 9.5-44.783 24.869-60.215l79.748-79.748-61.807-61.807-79.751 79.751c-15.396 15.46-36.677 25.049-60.198 25.121h-0.014c-46.948-0.447-84.887-38.386-85.333-85.291v-115.283h-87.726v115.24c-0.145 47.018-38.294 85.078-85.333 85.078-23.501 0-44.783-9.5-60.215-24.869l-79.748-79.748-63.402 60.212 79.751 79.751c16.341 15.575 26.503 37.507 26.503 61.813 0 47.128-38.205 85.333-85.333 85.333-0.346 0-0.691-0.002-1.035-0.006h-113.992v87.726h114.044c0.281-0.003 0.613-0.005 0.946-0.005 47.128 0 85.333 38.205 85.333 85.333 0 23.503-9.502 44.787-24.874 60.22l-79.748 79.748 60.212 63.402 79.751-79.751c15.396-15.46 36.677-25.049 60.198-25.121h0.014c0.239-0.002 0.522-0.004 0.806-0.004 47.149 0 85.45 37.885 86.122 84.875l0.001 0.063v114.044h87.726v-114.044c0.145-47.018 38.294-85.078 85.333-85.078 23.501 0 44.783 9.5 60.215 24.869l79.748 79.748 61.807-61.807-79.751-79.751c-15.366-15.429-24.866-36.711-24.866-60.212 0-47.039 38.060-85.188 85.064-85.333h115.254zM512 592.349c-79.722 0-144.349-64.627-144.349-144.349s64.627-144.349 144.349-144.349c79.722 0 144.349 64.627 144.349 144.349v0c0 79.722-64.627 144.349-144.349 144.349v0zM512 360.673c-0.356-0.005-0.776-0.008-1.196-0.008-48.229 0-87.327 39.098-87.327 87.327s39.098 87.327 87.327 87.327c48.227 0 87.322-39.093 87.327-87.318v0c-0.664-47.299-38.832-85.467-86.068-86.13l-0.063-0.001z" />
<glyph unicode="&#xe90e;" glyph-name="sounds" horiz-adv-x="1096" d="M0 634.748v-373.899h227.556l324.85-324.85v1024l-324.85-325.252zM302.335 561.577l144.333 143.931v-513.809l-175.29 175.29h-165.239v160.817h165.239zM646.081 603.791h106.139v-311.18h-106.139v311.18zM989.826 877.581h106.139v-858.761h-106.139v858.761zM817.753 758.979h106.139v-621.556h-106.139v621.556z" />
<glyph unicode="&#xe90f;" d="M744.107 309.646c48.677 66.844 77.876 150.59 77.876 241.157 0 227.724-184.607 412.331-412.331 412.331s-412.331-184.607-412.331-412.331c0-227.724 184.607-412.331 412.331-412.331 90.567 0 174.313 29.199 242.34 78.696l-1.183-0.82 280.348-280.348 93.298 91.022zM409.6 270.507c-153.685 0.518-278.071 125.224-278.071 278.982 0 154.078 124.905 278.983 278.983 278.983 153.757 0 278.463-124.386 278.981-278.022v-0.050c0.002-0.406 0.003-0.887 0.003-1.369 0-153.827-124.701-278.528-278.528-278.528-0.481 0-0.962 0.001-1.443 0.004h0.074z" />
<glyph unicode="&#xe910;" d="M583.452 499.883h-126.066v-123.335h-93.298v123.335h-125.611v88.292h125.611v123.335h93.298v-123.335h126.066z" />
<glyph unicode="&#xe911;" glyph-name="Aviation-Safety-Operations" horiz-adv-x="1025" d="M474.547 308.28h75.624v-75.624h-75.624v75.624zM1015.392 853.532l9.325 75.112c-153.836 19.964-331.767 31.358-512.359 31.358-180.594 0-358.527-11.395-533.119-33.504l20.761 2.145 9.325-75.112c138.434 17.972 299.834 28.918 463.531 30.219l1.691 0.011v-81.977h-30.742v-65.479c-157.529-33.293-274.115-170.975-274.522-335.96v-6.398c0.156-26.853 2.013-53.116 5.469-78.873l-0.345 3.146c8.095-64.967 30.742-132.496 84.744-182.605-99.974-12.954-176.505-97.246-177.173-199.546v-0.069h75.624c0.349 69.33 56.575 125.412 125.927 125.528h457.957c69.301-0.116 125.456-56.235 125.63-125.511v-0.017h75.624c-0.231 102.466-76.885 186.958-175.973 199.512l-0.996 0.103c54.003 50.109 76.444 117.33 84.744 182.605 3.111 22.61 4.968 48.874 5.123 75.54l0.001 0.186v6.353c-0.223 165.143-116.884 302.975-272.278 335.813l-2.243 0.397v65.479h-30.742v81.977c165.488-1.465 326.797-12.48 485.292-32.527l-20.275 2.093zM633.583 147.809h-242.448c-82.592 24.286-127.065 78.391-141.001 175.841 78.418 5.385 169.963 8.454 262.225 8.454 92.26 0 183.802-3.069 274.532-9.11l-12.307 0.656c-13.526-97.143-58.101-151.248-141.001-175.841zM779.81 400.299v-0.922c-76.341 4.919-152.99 7.275-229.639 7.993v162.623h-75.624v-162.623c-76.649-0.717-153.708-3.074-229.537-7.993v0.922c-0.033 1.558-0.051 3.394-0.051 5.235 0 147.709 119.742 267.451 267.451 267.451s267.451-119.742 267.451-267.451c0-1.841-0.019-3.677-0.056-5.509l0.004 0.274z" />
<glyph unicode="&#xe912;" glyph-name="Building-Constructions" d="M589.926 871.117c-11.419 7.53-24.626 13.653-38.72 17.673l-1.011 0.247v70.963h-76.39v-70.963c-15.105-4.267-28.312-10.39-40.272-18.254l0.541 0.334c-38.773-25.729-63.986-69.198-63.986-118.555 0-35.854 13.305-68.601 35.246-93.572l-0.137 0.159c8.132-9.118 17.203-17.115 27.141-23.94l0.507-0.329-17.92-203.571h-414.925v-495.309h448.614l58.88 674.918c0.676-0.075 1.459-0.117 2.253-0.117s1.577 0.043 2.349 0.126l-0.096-0.008c0.722-0.075 1.559-0.117 2.406-0.117s1.685 0.043 2.51 0.126l-0.104-0.008 58.88-674.918h448.307v935.117zM377.958 11.878h-302.080v343.962h332.083zM577.843 752.538c0-0.008 0-0.017 0-0.026 0-35.546-28.3-64.483-63.598-65.508l-0.095-0.002h-3.994c-13.713 0.472-26.263 5.086-36.535 12.621l0.183-0.128c-16.629 11.87-27.341 31.1-27.341 52.833 0 0.074 0 0.148 0 0.222v-0.011 2.662c0.71 15.281 6.558 29.074 15.84 39.815l-0.070-0.083c3.456 3.777 7.245 7.143 11.353 10.091l0.218 0.149c10.603 7.57 23.827 12.104 38.11 12.104 35.080 0 63.772-27.348 65.919-61.887l0.009-0.188zM948.122 11.878h-302.387l-36.352 419.84-17.92 203.162c38.072 25.76 62.768 68.787 62.768 117.582 0 15.317-2.433 30.065-6.934 43.879l0.282-1.001h300.544zM798.106 652.8h83.763v-123.904h-83.763v123.904zM659.661 652.8h83.763v-123.904h-83.763v123.904zM798.106 459.674h83.763v-123.904h-83.763v123.904zM659.661 459.674h83.763v-123.904h-83.763v123.904zM266.24 296.96h83.763v-123.904h-83.763v123.904zM127.795 296.96h83.763v-123.904h-83.763v123.904zM285.594 610.611l-64.307-40.346c-32.962 51.684-52.536 114.687-52.536 182.261 0 45.896 9.029 89.682 25.408 129.681l-0.828-2.284 70.451-28.16c-12.114-29.157-19.15-63.023-19.15-98.532 0-0.244 0-0.488 0.001-0.732v0.038c0-0.011 0-0.024 0-0.037 0-52.615 15.262-101.665 41.601-142.964l-0.641 1.075zM368.64 663.040l-64.205-40.96c-23.449 36.885-37.371 81.823-37.371 130.013 0 32.847 6.468 64.183 18.2 92.804l-0.592-1.632 70.349-28.262c-7.626-18.526-12.054-40.033-12.054-62.575 0-33.129 9.564-64.024 26.081-90.075l-0.408 0.688z" />
<glyph unicode="&#xe913;" glyph-name="Dangerous-Goods" d="M757.987 467.308v492.692h-512.154v-655.557h-245.834v-368.751h1024.307v531.615zM321.632 884.099h360.454v-416.791h-190.419v-162.865h-170.035zM75.799 11.799v216.641h415.869v-216.641zM948.304 11.799h-380.633v380.53h380.735zM749.383 218.402c-13.69 0-24.788-11.098-24.788-24.788s11.098-24.788 24.788-24.788v0c13.69 0 24.788 11.098 24.788 24.788s-11.098 24.788-24.788 24.788v0zM775.503 149.261l37.899-65.453c36.763 21.767 61.426 60.579 63.090 105.272l0.007 0.232v2.458c0 0.615 0 1.229 0 1.844h-75.184c-0.045-18.894-10.315-35.379-25.567-44.221l-0.246-0.131zM689.052 304.443c-0.69-0.070-1.316-0.29-1.863-0.626l0.019 0.011c-0.328-0.312-0.748-0.531-1.215-0.613l-0.014-0.002 36.773-63.405v-0.615l0.922-1.536c7.346 4.314 16.179 6.862 25.608 6.862s18.262-2.548 25.849-6.992l-0.242 0.131 36.158 62.79 0.819 1.229 0.922 1.536c-18.349 10.441-40.301 16.624-63.69 16.696h-0.021c-22.025-0.111-42.69-5.829-60.673-15.797l0.649 0.33zM698.168 193.921h-75.594c0.001-46.848 25.365-87.771 63.109-109.788l0.603-0.325 37.080 63.712 0.922 1.536c-15.704 8.95-26.12 25.581-26.12 44.646 0 0.077 0 0.154 0.001 0.231v-0.012z" />
<glyph unicode="&#xe914;" glyph-name="Landing-Permits" horiz-adv-x="1021" d="M761.313 651.575h-501.689l-259.624-715.575h1020.937zM90.966-10.911l232.059 609.397h374.888l232.059-609.397zM474.021 557.853h72.793v-101.583h-72.793v101.583zM474.021 415.534h72.793v-101.277h-72.793v101.277zM474.021 273.318h72.793v-101.277h-72.793v101.277zM474.021 131.407h72.793v-101.583h-72.793v101.583zM480.964 960v-60.337c-32.9-10.211-58.294-35.605-68.31-67.777l-0.195-0.728h-191.222v-59.725h191.119c13.055-42.767 52.167-73.339 98.418-73.339s85.363 30.573 98.227 72.612l0.192 0.728h190.507v59.725h-190.609c-10.287 32.669-35.409 57.926-67.26 68.198l-0.734 0.205v60.439zM554.369 801.346v0c0-0.030 0-0.065 0-0.101 0-24.076-19.518-43.594-43.594-43.594s-43.594 19.518-43.594 43.594c0 23.969 19.343 43.419 43.271 43.593h0.017c0.001 0 0.001 0 0.002 0 24.102 0 43.667-19.423 43.898-43.47v-0.022z" />
<glyph unicode="&#xe915;" glyph-name="Landing-permits-for-flights" d="M945.137 367.318l-178.654 69.46-13.043 432.227-235.981 90.995-60.664-403.412-109.801 42.768-7.28 225.668-174.711 67.943-165.005-423.735 855.355-331.829c14.774-6.749 32.046-10.684 50.236-10.684 68.18 0 123.45 55.271 123.45 123.45 0 54.251-34.995 100.329-83.642 116.891l-0.869 0.257zM677.915 815.014l10.313-347.905-157.422 60.664 48.531 325.46zM883.867 208.379l-783.469 303.318 108.588 281.479 55.507-21.536 8.493-225.972 645.156-250.237c17.363-6.921 29.41-23.589 29.41-43.071 0-25.54-20.704-46.244-46.244-46.244-6.058 0-11.844 1.165-17.146 3.283l0.312-0.11zM0 11.829h1024v-75.829h-1024v75.829z" />
<glyph unicode="&#xe916;" glyph-name="firearms" horiz-adv-x="1025" d="M516.862 521.23h60.772v-112.427h-60.772v112.427zM1025.215 878.566h-94.804v81.434h-75.964v-81.434h-852.624v-367.972l-3.039-2.735c21.574-24.612 65.633-87.511 65.633-125.493v-446.367h367.972l-2.431 40.717c-7.9 116.377-15.801 234.882-16.104 339.713h189.911c56.927 0.173 103.008 46.361 103.008 103.311 0 0 0 0 0 0v0 91.157h318.443zM141.598 11.964v370.706c-4.545 48.704-22.215 92.561-49.395 128.891l0.474-0.663h257.671c-20.966-131.57-10.939-315.404 0-498.63zM646.001 419.741c0 0 0-0.001 0-0.001 0-23.387-18.873-42.367-42.22-42.539h-189.319c1.028 47.914 5.519 93.961 13.241 138.902l-0.783-5.509h219.081zM949.859 586.559h-872.071v216.043h871.464zM319.658 766.139h429.047v-60.772h-429.047v60.772zM799.753 766.139h73.837v-60.772h-73.837v60.772z" />
<glyph unicode="&#xe917;" glyph-name="storage-of-dangerous-goods" d="M673.062 960h-673.062v-1024h1024v1024zM597.232 884.171v-130.73h-130.73v130.73zM948.171 11.829h-872.341v872.341h314.844v-206.559h282.389v206.559h275.109zM131.033 224.455h216.872v-60.664h-216.872v60.664zM131.033 117.081h216.872v-60.664h-216.872v60.664zM636.967 385.82c-26.401-2.103-47.029-24.045-47.029-50.806s20.628-48.703 46.85-50.794l0.179-0.011c1.176-0.097 2.546-0.152 3.929-0.152 28.143 0 50.957 22.814 50.957 50.957s-22.814 50.957-50.957 50.957c-1.383 0-2.752-0.055-4.107-0.163l0.179 0.011zM691.261 244.171l77.953-133.46c75.343 44.747 125.854 124.406 129.2 216.103l0.013 0.466v5.46s0 2.427 0 3.64h-154.692c0.008-0.495 0.013-1.079 0.013-1.664 0-38.546-20.901-72.21-51.988-90.277l-0.499-0.268zM691.261 426.464l74.009 128.607 2.123 2.73 1.82 3.033c-37.583 21.73-82.59 34.73-130.597 35.184l-0.133 0.001c-45.197-0.563-87.454-12.641-124.127-33.427l1.283 0.669c-0.593 0.108-1.275 0.17-1.972 0.17s-1.379-0.062-2.041-0.18l0.070 0.010c-0.364-0.105-0.781-0.165-1.213-0.165s-0.85 0.060-1.245 0.173l0.032-0.008 75.223-130.123 1.82-3.033c15.125 8.949 33.334 14.236 52.777 14.236s37.652-5.288 53.266-14.503l-0.489 0.267zM532.626 335.469h-154.692c0.103-95.542 51.735-179.002 128.596-224.095l1.224-0.664 76.133 130.73 1.82 3.033c-31.918 18.253-53.081 52.096-53.081 90.881 0 0.040 0 0.080 0 0.12v-0.006z" />
<glyph unicode="&#xe918;" glyph-name="suspicious-goods" horiz-adv-x="1026" d="M320.933 960v-378.786h-320.933v-645.214h1026.436v1024zM77.34 12.123v492.969h243.592v-492.969zM951.531 12.123h-555.694v871.755h554.476zM653.74 275.506h-75.209v205.835h107.18c1.368-0.097 2.965-0.152 4.575-0.152 38.005 0 68.815 30.809 68.815 68.815s-30.809 68.815-68.815 68.815c-1.61 0-3.206-0.055-4.789-0.164l0.214 0.012h-107.18v76.123h107.18c1.982 0.097 4.306 0.152 6.641 0.152 80.047 0 144.937-64.891 144.937-144.937s-64.891-144.937-144.937-144.937c-2.336 0-4.659 0.055-6.968 0.165l0.326-0.012h-30.449zM577.618 229.224h75.514v-75.514h-75.514v75.514z" />
<glyph unicode="&#xe919;" glyph-name="transport-dangerous-goods" horiz-adv-x="1021" d="M1020.664 174.408c-0.165 130.691-105.462 236.733-235.851 238.103l-0.13 0.001v547.488h-784.682v-1024h784.682c130.621 1.372 235.981 107.58 235.981 238.395 0 0.004 0 0.009 0 0.013v-0.001zM75.829 884.171h633.024v-483.185c-96.589-31.702-165.108-121.058-165.108-226.418 0-63.017 24.512-120.31 64.522-162.862l-0.115 0.124h-532.322zM782.256 11.829c-89.789 0-162.578 72.789-162.578 162.578s72.789 162.578 162.578 162.578c89.789 0 162.578-72.789 162.578-162.578v0c-0.172-89.72-72.858-162.406-162.562-162.578h-0.017zM133.46 216.265h318.787v-45.498h-318.787v45.498zM133.46 123.45h215.052v-45.498h-215.052v45.498zM740.701 155.905l-39.735 39.735-53.384-53.687 93.118-93.118 176.227 176.227-53.384 53.687-122.844-122.844zM349.118 603.299c-0.001-0.090-0.001-0.197-0.001-0.304 0-23.514 18.976-42.595 42.449-42.767h0.016c1.086-0.097 2.348-0.152 3.624-0.152 23.955 0 43.374 19.419 43.374 43.374s-19.419 43.374-43.374 43.374c-1.276 0-2.538-0.055-3.786-0.163l0.162 0.011c-23.526-0.341-42.466-19.492-42.466-43.067 0-0.108 0-0.216 0.001-0.324v0.017zM613.308 596.019v4.853s0 2.123 0 3.033h-131.033c0-0.074 0-0.163 0-0.251 0-33.029-18.018-61.85-44.76-77.169l-0.434-0.229 66.123-114.351c63.983 38.16 106.934 105.791 110.090 183.675l0.014 0.439zM345.782 683.678v-2.427c13.006 7.841 28.71 12.48 45.498 12.48s32.491-4.639 45.9-12.704l-0.402 0.225 63.090 109.194 1.517 2.123 1.517 2.73c-31.892 18.566-70.086 29.751-110.846 30.33l-0.168 0.002c-38.71-0.002-75.083-10.006-106.677-27.568l1.122 0.572c-0.501 0.065-1.080 0.102-1.668 0.102s-1.167-0.037-1.736-0.109l0.068 0.007c-0.315-0.121-0.68-0.192-1.062-0.192s-0.746 0.070-1.082 0.199l0.021-0.007 64-110.408zM281.175 411.905l64.607 111.014v2.73c-25.657 15.817-42.503 43.764-42.503 75.646 0 0.918 0.014 1.832 0.042 2.743l-0.003-0.133h-132.55c0-0.124 0-0.271 0-0.418 0-81.402 43.927-152.545 109.369-191.017l1.039-0.565z" />
<glyph unicode="&#xe91a;" glyph-name="aircraft-Warning-Lights" d="M192.303 808.341v0c-12.667-15.416-31.734-25.173-53.081-25.173s-40.413 9.757-52.986 25.054l-0.095 0.119-86.142-872.341h278.445zM139.223 573.877l55.507-562.047h-111.014zM139.223 884.171c16.752 0 30.332-13.58 30.332-30.332s-13.58-30.332-30.332-30.332c-16.752 0-30.332 13.58-30.332 30.332v0c0 16.752 13.58 30.332 30.332 30.332v0zM139.223 960c-59.469 0-107.678-48.209-107.678-107.678s48.209-107.678 107.678-107.678c59.469 0 107.678 48.209 107.678 107.678v0c0 59.469-48.209 107.678-107.678 107.678v0zM760.114 899.336l-45.194-201.403h-106.161l85.232 201.403h66.123zM963.336 780.133v-188.664h-527.469c-12.723 3.797-21.839 15.393-21.839 29.118s9.116 25.321 21.624 29.063l0.215 0.055h434.047l56.114 130.427h37.308zM714.919 543.242l45.194-201.403h-66.123l-85.232 201.403h106.161zM836.246 960h-181.991l-17.289-37.005-84.929-201.403-4.853-11.223h-112.227c-4.452 0.772-9.58 1.213-14.81 1.213-50.255 0-90.995-40.74-90.995-90.995s40.74-90.995 90.995-90.995c5.23 0 10.358 0.441 15.347 1.289l-0.537-0.075h112.227l4.853-11.223 84.929-201.403 15.773-37.005h181.991l-15.773 74.009-39.735 175.621h242.654v309.991h-135.886l-15.773-36.701-40.038-93.725h-50.351l39.128 175.621 17.289 74.009z" />
<glyph unicode="&#xe91b;" glyph-name="construct-a-building" d="M528.986 775.583v114.957h-64.607v69.46h-75.829v-69.46h-64.607v-114.957h-107.374v-206.559h75.829v130.73h294.218v75.829zM399.773 775.583v39.128h53.384v-39.128zM477.422 640.91h104.948v-75.223h-104.948zM561.137 960v-487.431h-128v172.284h-433.137v-708.853h1024v1024zM357.308 11.829h-281.479v557.194h281.479zM561.137 11.829h-126.787v384.91h245.991v-384.91zM948.171 11.829h-192v460.739h-119.204v411.602h311.204zM241.744 454.976h76.739v-113.441h-76.739v113.441zM114.654 454.976h76.739v-113.441h-76.739v113.441zM241.744 278.142h76.739v-113.441h-76.739v113.441zM114.654 278.142h76.739v-113.441h-76.739v113.441zM582.37 309.687h76.739v-113.441h-76.739v113.441zM455.28 309.687h76.739v-113.441h-76.739v113.441zM817.441 817.137h76.739v-113.441h-76.739v113.441zM690.654 817.137h76.739v-113.441h-76.739v113.441zM817.441 640.303h76.739v-113.441h-76.739v113.441zM690.654 640.303h76.739v-113.441h-76.739v113.441z" />
<glyph unicode="&#xe91c;" glyph-name="high-voltage-power-lines" horiz-adv-x="1014" d="M757.64 11.073l-30.029 251.946 190.386 181.677c-8.328 7.85-13.514 18.956-13.514 31.273 0 0.091 0 0.181 0.001 0.272v-0.014h-203.599l-7.207 60.059 221.316 187.383c-7.080 7.841-11.412 18.282-11.412 29.735 0 0.104 0 0.207 0.001 0.31v-0.016h-236.631l-15.916 131.228h120.117v-49.849h75.073v124.922h-678.663v-124.922h75.073v49.849h120.117l-15.916-132.429h-236.631c0.001-0.129 0.002-0.282 0.002-0.435 0-11.46-4.458-21.879-11.734-29.617l0.021 0.022 221.616-187.383-7.207-60.059h-202.698c0-0.077 0.001-0.167 0.001-0.258 0-12.317-5.186-23.423-13.493-31.253l-0.021-0.020 190.386-181.677-30.029-251.946h-257.051v-75.073h1013.79v76.274zM645.030 313.769l-115.613 42.642 105.703 37.837zM507.496 364.218l-100.298 36.936h202.698zM485.574 356.411l-116.814-42.041 9.91 81.379zM507.496 348.303l116.514-42.642h-235.43zM762.745 401.154l-47.146-45.344-5.706 45.344zM612.598 590.94l-86.184 44.443 74.172 38.137zM509.898 643.791l-66.965 33.633h132.429zM493.082 635.683l-90.088-44.744 10.21 84.983zM509.598 626.975l87.986-45.044h-179.575zM744.727 677.424l-62.161-52.551-6.306 52.551zM438.428 884.927h136.934l16.216-132.429h-169.365zM270.264 677.424h68.767l-8.709-52.551zM393.985 506.857h228.823l3.904-30.029h-238.133zM250.745 401.154h53.152l-5.706-45.344zM358.55 230.588h296.69l26.726-219.514h-350.142zM947.425 773.818c11.775 0 21.321-9.546 21.321-21.321s-9.546-21.321-21.321-21.321c-11.775 0-21.321 9.546-21.321 21.321v0c0 11.775 9.546 21.321 21.321 21.321v0zM947.425 818.862c-36.652 0-66.365-29.713-66.365-66.365s29.713-66.365 66.365-66.365c36.652 0 66.365 29.713 66.365 66.365v0c0 36.652-29.713 66.365-66.365 66.365v0zM66.365 773.818c11.775 0 21.321-9.546 21.321-21.321s-9.546-21.321-21.321-21.321c-11.775 0-21.321 9.546-21.321 21.321v0c0 11.775 9.546 21.321 21.321 21.321v0zM66.365 818.862c-36.652 0-66.365-29.713-66.365-66.365s29.713-66.365 66.365-66.365c36.652 0 66.365 29.713 66.365 66.365v0c0 36.652-29.713 66.365-66.365 66.365v0zM947.425 497.548c11.775 0 21.321-9.546 21.321-21.321s-9.546-21.321-21.321-21.321c-11.775 0-21.321 9.546-21.321 21.321v0c0 11.775 9.546 21.321 21.321 21.321v0zM947.425 542.592c-36.652 0-66.365-29.713-66.365-66.365s29.713-66.365 66.365-66.365c36.652 0 66.365 29.713 66.365 66.365v0c0 36.652-29.713 66.365-66.365 66.365v0zM66.365 497.548c11.775 0 21.321-9.546 21.321-21.321s-9.546-21.321-21.321-21.321c-11.775 0-21.321 9.546-21.321 21.321v0c0 11.775 9.546 21.321 21.321 21.321v0zM66.365 542.592c-36.652 0-66.365-29.713-66.365-66.365s29.713-66.365 66.365-66.365c36.652 0 66.365 29.713 66.365 66.365v0c0 36.652-29.713 66.365-66.365 66.365v0z" />
<glyph unicode="&#xe91d;" glyph-name="NOC-for-building-heights" horiz-adv-x="1019" d="M633.084 602.643v172.027h-107.328v114.886h-64.094v68.932h-75.583v-68.932h-64.397v-114.886h-107.328v-836.856h804.809v665.131zM397.265 814.276h52.908v-39.303h-52.908zM289.937 13.397v685.69h267.564v-58.652h-83.141v-75.583h83.141v-551.454zM943.58 13.397h-308.681v513.965h308.681zM813.577 448.151h76.49v-113.072h-76.49v113.072zM686.899 448.151h76.49v-113.072h-76.49v113.072zM813.577 271.589h76.49v-113.072h-76.49v113.072zM686.899 271.589h76.49v-113.072h-76.49v113.072zM0-64h152.073v75.583h-76.49v872.834h76.49v75.583h-152.073v-1024z" />
<glyph unicode="&#xe91e;" glyph-name="telecommunications-tower" horiz-adv-x="1021" d="M405.839 512.91l53.687-53.384c43.338 43.813 70.111 104.088 70.111 170.616s-26.773 126.803-70.132 170.638l0.021-0.022-53.687-53.081c29.973-30.016 48.508-71.46 48.508-117.232s-18.536-87.216-48.51-117.234l0.002 0.002zM475.299 444.36l53.687-53.384c60.835 61.321 98.429 145.778 98.429 239.014s-37.594 177.692-98.451 239.036l0.022-0.022-53.687-52.171c47.812-47.764 77.387-113.774 77.387-186.692s-29.575-138.929-77.385-186.69l-0.002-0.002zM1020.664 174.408c-0.165 130.691-105.462 236.733-235.851 238.103l-0.13 0.001v547.488h-784.682v-1024h784.682c130.621 1.372 235.981 107.58 235.981 238.395 0 0.004 0 0.009 0 0.013v-0.001zM75.829 884.171h633.024v-483.185c-96.589-31.702-165.108-121.058-165.108-226.418 0-63.017 24.512-120.31 64.522-162.862l-0.115 0.124h-181.991l-62.18 505.63c37.159 24.38 61.359 65.848 61.359 112.968 0 61.452-41.159 113.29-97.413 129.452l-0.951 0.234v48.227h-76.133v-48.834c-57.096-16.467-98.152-68.252-98.152-129.626 0-47.159 24.239-88.656 60.938-112.713l0.512-0.315-62.483-505.024h-75.829zM288.152 689.744c33.504 0 60.664-27.16 60.664-60.664s-27.16-60.664-60.664-60.664c-33.504 0-60.664 27.16-60.664 60.664v0c0 0.001 0 0.002 0 0.003 0 33.504 27.16 60.664 60.664 60.664 0.213 0 0.426-0.001 0.639-0.003h-0.032zM288.152 494.711h1.517l60.664-483.185h-122.844l60.664 483.185zM782.256 11.829c-89.789 0-162.578 72.789-162.578 162.578s72.789 162.578 162.578 162.578c89.789 0 162.578-72.789 162.578-162.578v0c-0.172-89.72-72.858-162.406-162.562-162.578h-0.017zM740.701 155.905l-39.735 39.735-53.384-53.687 93.118-93.118 176.227 176.227-53.384 53.687-122.844-122.844z" />
<glyph unicode="&#xe91f;" glyph-name="use-cranes" horiz-adv-x="1023" d="M469.258 552.279h256.152v-317.082l-112.767-112.767 43.046-43.046 132.471 131.259h21.22l130.349-131.259 42.742 43.046-112.464 112.464v317.385h153.994l-60.628 223.413h-494.115v184.308h-212.197v-184.308h-70.025v54.868h-187.036v-333.452h187.036v55.171h70.934v-540.495h-257.97v-75.784h1023.394v75.784h-554.136zM808.772 271.271h-22.735v161.876h22.735v-161.876zM786.037 494.986v56.99h22.735v-56.99zM111.252 573.196h-35.467v181.883h35.467zM904.867 699.908l19.401-73.359h-454.707v73.359zM394.079 626.548h-60.628v73.359h60.628zM333.452 884.216h60.628v-108.523h-60.628zM187.036 626.548v73.359h70.934v-73.359zM394.079 552.279v-539.889h-60.628v539.889zM571.415 131.827h451.979v-78.21h-451.979v78.21z" />
<glyph unicode="&#xe920;" glyph-name="aviation-institute" horiz-adv-x="1021" d="M630.363 576.34l-96.444 96.444v35.373l-142.701 143.003-143.003-143.003v-35.373l-97.049-96.444v-188.958h479.197zM248.215 421.848h-61.978v140.282l61.978 61.978zM412.381 421.848h-42.629v47.769l21.466 16.628 21.163-16.628zM499.756 421.848h-52.908v64.397l-55.629 43.838-55.629-43.838v-64.397h-52.908v272.099l108.537 108.537 108.537-108.537zM596.2 421.848h-62.28v202.26l62.28-61.978zM344.054 699.994l42.629-26.908-14.814-15.117-26.001 10.582-12.396-12.396 35.071-35.071 77.699 78.002c2.234 2.002 3.634 4.896 3.634 8.117 0 0.122-0.002 0.244-0.006 0.366v-0.018c0 0.015 0 0.033 0 0.050 0 3.219-1.397 6.111-3.618 8.104l-0.010 0.009c-2.096 2.195-5.046 3.56-8.314 3.56s-6.218-1.365-8.31-3.556l-0.004-0.004-18.442-18.14-48.373 20.559zM329.845 586.619h26.001v-26.001h-26.001v26.001zM426.289 586.619h26.001v-26.001h-26.001v26.001zM576.85 538.246v0h-26.001v-26.001h26.001v26.001zM576.85 475.966v0h-26.001v-26.001h26.001v26.001zM205.586 538.246h26.001v-26.001h-26.001v26.001zM205.586 475.966h26.001v-26.001h-26.001v26.001zM129.096 218.076h323.193v-45.35h-323.193v45.35zM129.096 124.655h219.493v-45.35h-219.493v45.35zM782.436 413.988v546.012h-782.436v-1023.093h760.064c7.256 0 14.21 0 21.466 0 128.367 4.709 230.643 109.907 230.643 238.994s-102.276 234.285-230.215 238.981l-0.428 0.012zM606.479 12.792h-530.593v871.322h630.665v-483.732c-95.929-32.358-163.777-121.516-163.777-226.521 0-62.749 24.228-119.838 63.84-162.425l-0.135 0.146zM781.529 12.792c-90.166 0-163.26 73.094-163.26 163.26s73.094 163.26 163.26 163.26c90.166 0 163.26-73.094 163.26-163.26v0c0.002-0.27 0.003-0.588 0.003-0.907 0-90.227-73.058-163.391-163.246-163.562h-0.016zM740.11 156.703l-39.606 39.606-53.815-53.513 93.421-93.421 176.26 176.26-53.513 53.815-122.747-122.747z" />
<glyph unicode="&#xe921;" glyph-name="Aviation-Training-Programs" horiz-adv-x="1022" d="M445.73 302.752h421.22v-31.168h-421.22v31.168zM445.125 679.792l3.934-30.26c57.113 7.306 123.592 11.692 191.013 12.101l0.533 0.003v-34.496h-12.709v-14.827h-30.26v-95.017h-22.695l-60.52 78.676h-66.572l49.324-166.43 103.792-15.433h45.087v-43.272h-47.206v-30.26h229.976c20.927 0.171 37.825 17.176 37.825 38.126 0 0 0 0.001 0 0.001v0 13.314h-30.26v-13.314c0-3.677-2.981-6.657-6.657-6.657v0h-30.26v41.456h4.539c0.003 0 0.007 0 0.010 0 35.764 0 64.757 28.992 64.757 64.757 0 29.519-19.751 54.425-46.759 62.223l-0.457 0.113-28.142 42.667c-11.544 17.24-30.941 28.439-52.954 28.444h-53.864v15.433h-14.827v33.891c68.062-0.412 134.647-4.798 200.067-12.938l-8.218 0.834 3.934 30.26c-64.162 8.429-138.357 13.24-213.676 13.24-73.576 0-146.080-4.591-217.241-13.501l8.487 0.867zM766.184 370.232h-90.78v43.272h90.78zM707.177 580.539h30.26c11.203-0.029 21.065-5.742 26.857-14.407l0.074-0.118 15.13-22.998h-72.322zM676.917 580.539v-68.69h124.974c0.023 0 0.051 0 0.078 0 10.985 0 20.727-5.321 26.789-13.526l0.064-0.091c4.154-5.389 6.659-12.236 6.659-19.669 0-0.107-0.001-0.213-0.002-0.319v0.016c-0.506-18.156-15.345-32.681-33.576-32.681-0.004 0-0.009 0-0.013 0h-203.044l-79.584 11.801-31.773 107.423h9.381l60.52-78.676h71.716v94.411zM1021.579 154.478v654.222h-717.163v151.3h-136.17v-151.3h-168.246v-654.222h387.934v-142.525h-83.518v-75.953h412.747v75.953h-83.518v142.525zM213.939 914.61h44.785v-386.723h-44.785zM557.693 11.953h-93.806v142.525h93.806zM75.953 230.128v504.132h92.293v-252.066h136.17v252.066h641.21v-504.132zM236.331 356.917l68.085 114.686h-136.17zM236.331 410.478l-19.972 35.102h39.943z" />
<glyph unicode="&#xe922;" glyph-name="conduct-activity-out-of-Schedule" horiz-adv-x="1021" d="M781.649 414.028c-20.41-0.111-40.15-2.76-58.99-7.646l1.663 0.366v146.806h151.659l-60.664-60.664 52.171-54.597 151.659 151.659-151.659 153.175-53.384-52.171 60.664-60.664h-151.659v90.692c0 0 0 0 0 0 0 61.144-49.567 110.711-110.711 110.711-0.107 0-0.213 0-0.32 0h-35.774v128.303h-139.526v-128.303h-149.232v128.303h-138.313v-128.303h-38.218c-0.090 0-0.197 0-0.303 0-61.144 0-110.711-49.567-110.711-110.711 0 0 0 0 0 0v0-673.972c0-61.311 49.703-111.014 111.014-111.014v0h502.294c25.377 0.067 48.718 8.732 67.276 23.235l-0.242-0.182c29.523-14.357 64.224-22.749 100.885-22.749 0.149 0 0.297 0 0.446 0h-0.023c132.004 0 239.014 107.010 239.014 239.014s-107.010 239.014-239.014 239.014v0zM488.645 908.133h34.578v-76.436h-34.578zM201.1 908.133h34.578v-76.436h-34.578zM75.829 47.014v673.972c0.172 19.301 15.858 34.882 35.184 34.882 0 0 0.001 0 0.001 0h502.294c0 0 0.001 0 0.001 0 19.325 0 35.012-15.58 35.183-34.865v-91.011h-340.019v-75.829h340.019v-180.171c-64.596-43.401-106.533-116.191-106.533-198.776 0-63.27 24.615-120.791 64.791-163.508l-0.115 0.124h-495.621c-19.432 0-35.185 15.753-35.185 35.185v0zM781.649 11.829c-90.124 0-163.185 73.060-163.185 163.185s73.060 163.185 163.185 163.185c90.124 0 163.185-73.060 163.185-163.185v0c0-90.124-73.060-163.185-163.185-163.185v0zM740.095 156.815l-39.735 39.431-53.687-53.687 93.422-93.118 176.227 176.227-53.384 53.687-122.844-122.54z" />
<glyph unicode="&#xe923;" glyph-name="damaged-permit" horiz-adv-x="1025" d="M789.327 409.596c-10.806-0.102-21.329-0.871-31.653-2.268l1.294 0.143v178.813l-242.87 373.716h-516.098v-1024h789.327c130.78 0 236.798 106.018 236.798 236.798s-106.018 236.798-236.798 236.798v0zM75.897 294.233l79.843-66.182 101.702 71.647 76.504-58.896-81.969 14.876-97.755-79.843-78.326 43.109zM75.897 11.897v155.133l83.487-45.842 105.041 85.915 244.691-44.931-250.46 193.992-100.791-70.736-81.969 67.396v531.278h399.824l173.956-270.193h-207.35v82.879h-75.897v-158.776h315.427v-154.83c-77.974-39.66-130.462-119.303-130.462-211.205 0-62.281 24.106-118.932 63.496-161.131l-0.127 0.138zM788.113 11.897c-88.863 0-160.901 72.038-160.901 160.901s72.038 160.901 160.901 160.901c88.863 0 160.901-72.038 160.901-160.901v0c-0.168-88.37-71.415-160.044-159.606-160.901l-0.081-0.001zM790.541 43.773l34.002 34.305-34.913 34.913h114.149v48.574h-231.334l118.095-117.792zM751.682 267.517l34.913-34.913h-114.149v-48.574h231.334l-117.792 117.792-34.305-34.305z" />
<glyph unicode="&#xe924;" glyph-name="de-register-an-aircraft" horiz-adv-x="1021" d="M786.064 412.476v547.524h-786.064v-1024h786.064c131.575 0 238.238 106.663 238.238 238.238s-106.663 238.238-238.238 238.238v0zM608.293 11.583h-532.407v872.531h632.782v-483.732c-96.387-31.982-164.682-121.315-164.682-226.599 0-63.021 24.47-120.327 64.428-162.935l-0.12 0.129zM782.436 11.583c-0.090 0-0.196 0-0.302 0-89.832 0-162.655 72.823-162.655 162.655s72.823 162.655 162.655 162.655c89.832 0 162.655-72.823 162.655-162.655 0-0.106 0-0.212 0-0.319v0.016c-0.342-89.527-72.826-162.010-162.32-162.352h-0.033zM671.178 562.13c-0.168 36.106-29.476 65.31-65.605 65.31-0.319 0-0.638-0.002-0.956-0.007l0.048 0.001h-100.677l-90.7 211.633h-132.724l47.466-211.633h-62.28l-47.164 110.351h-99.467v-241.866h208.912l-47.466-211.633h134.236l90.7 211.633h99.165c0.362-0.007 0.788-0.011 1.216-0.011 36.066 0 65.304 29.238 65.304 65.304 0 0.323-0.002 0.645-0.007 0.967l0.001-0.049zM387.59 797.647l71.955-170.213h-90.7l-36.28 170.213zM387.59 326.614h-55.025l38.396 170.213h90.7zM604.665 536.735h-444.731v160.236h30.233l48.676-110.351h365.822c13.775 0 24.942-11.167 24.942-24.942s-11.167-24.942-24.942-24.942v0zM133.631 216.262h318.658v-45.35h-318.658v45.35zM133.631 123.446h215.261v-45.35h-215.261v45.35zM650.619 212.030h263.634v-75.885h-263.634v75.885z" />
<glyph unicode="&#xe925;" glyph-name="Establish-Aviation-Club" horiz-adv-x="1021" d="M128.91 218.085h323.336v-45.498h-323.336v45.498zM128.91 124.664h219.602v-45.498h-219.602v45.498zM650.009 591.773v39.735c-7.968 40.677-37.839 72.773-76.582 83.832l-0.764 0.186c13.259 9.136 21.839 24.236 21.839 41.34 0 27.64-22.407 50.047-50.047 50.047s-50.047-22.407-50.047-50.047c0-0.031 0-0.063 0-0.094v0.005c-0.004-0.238-0.007-0.52-0.007-0.802 0-16.706 8.337-31.466 21.078-40.344l0.16-0.106c-13.922-3.877-26.064-10.020-36.661-18.088l0.263 0.192c-14.196 11.208-31.040 19.783-49.392 24.656l-0.959 0.217c18.131 12.387 29.877 32.961 29.877 56.278 0 37.524-30.419 67.943-67.943 67.943s-67.943-30.419-67.943-67.943c0-23.317 11.746-43.891 29.644-56.127l0.233-0.151c-18.965-5.434-35.464-14.073-49.733-25.4l0.293 0.224c-10.424 7.97-22.661 14.21-35.929 18.010l-0.773 0.189c12.901 8.984 21.239 23.743 21.239 40.449 0 0.282-0.002 0.563-0.007 0.844l0.001-0.042c0 27.64-22.407 50.047-50.047 50.047s-50.047-22.407-50.047-50.047v0c-0.001-0.117-0.002-0.255-0.002-0.393 0-16.962 8.595-31.917 21.666-40.747l0.174-0.111c-39.545-11.181-69.447-43.309-77.236-83.338l-0.11-0.681v-194.427h517.763zM545.972 776.493c10.889 0 19.716-8.827 19.716-19.716s-8.827-19.716-19.716-19.716v0c-10.889 0-19.716 8.827-19.716 19.716s8.827 19.716 19.716 19.716v0zM545.972 688.834c0.090 0 0.197 0.001 0.304 0.001 35.424 0 65.22-24.098 73.889-56.794l0.12-0.533h-90.995c-6.311 17.276-15.155 32.172-26.246 45.082l0.161-0.191c11.874 7.798 26.428 12.439 42.066 12.439 0.247 0 0.493-0.001 0.74-0.003h-0.038zM481.972 654.863c5.596-6.809 10.638-14.467 14.829-22.633l0.337-0.722h-25.782c1.767 8.816 4.927 16.644 9.275 23.659l-0.175-0.303zM391.583 815.924c20.772-0.001 37.61-16.84 37.61-37.611s-16.839-37.611-37.611-37.611c-20.666 0-37.438 16.667-37.61 37.292v0.016c-0.003 0.181-0.005 0.394-0.005 0.608 0 20.605 16.703 37.308 37.308 37.308 0.108 0 0.217 0 0.325-0.001h-0.017zM391.583 697.327c0.049 0 0.107 0 0.165 0 24.96 0 48.062-7.955 66.91-21.468l-0.345 0.235c-9.501-12.525-16.404-27.553-19.605-43.907l-0.111-0.681h-94.938c-3.196 16.809-10.002 31.644-19.599 44.236l0.187-0.255c18.401 13.644 41.555 21.841 66.623 21.841 0.251 0 0.502-0.001 0.752-0.002h-0.039zM300.588 654.559c4.637-6.591 8.281-14.276 10.5-22.545l0.116-0.507h-23.962c4.975 8.735 10.293 16.277 16.248 23.259l-0.172-0.207zM236.588 775.886c10.889 0 19.716-8.827 19.716-19.716s-8.827-19.716-19.716-19.716v0c-10.889 0-19.716 8.827-19.716 19.716s8.827 19.716 19.716 19.716v0zM236.588 688.227c15.808-0.032 30.501-4.783 42.751-12.918l-0.286 0.179c-10.602-12.681-19.233-27.465-25.148-43.561l-0.33-1.027h-90.995c8.571 33.54 38.518 57.941 74.165 57.941 0.372 0 0.743-0.003 1.114-0.008l-0.056 0.001zM618.464 466.502h-455.886v134.673h457.1zM476.815 498.957c0 8.711-7.062 15.773-15.773 15.773v0h-38.218l-30.332 70.37h-32.455l15.773-70.37h-32.455l-15.773 36.701h-24.265v-68.246h157.725c8.711 0 15.773 7.062 15.773 15.773v0zM782.256 414.028v545.972h-782.256v-1023.090h760.114c6.976 0 14.256 0 21.536 0 132.004 0 239.014 107.010 239.014 239.014s-107.010 239.014-239.014 239.014v0zM606.635 12.739h-530.806v871.431h630.597v-482.578c-95.774-32.509-163.466-121.62-163.466-226.541 0-62.754 24.215-119.852 63.811-162.46l-0.137 0.149zM781.953 12.739c-90.124 0-163.185 73.060-163.185 163.185s73.060 163.185 163.185 163.185c90.124 0 163.185-73.060 163.185-163.185v0c0.002-0.27 0.003-0.59 0.003-0.91 0-90.124-73.060-163.185-163.185-163.185-0.108 0-0.215 0-0.323 0h0.017zM740.095 156.815l-39.735 39.431-53.687-53.687 93.422-93.118 176.227 176.227-53.384 53.687-122.844-122.54z" />
<glyph unicode="&#xe926;" glyph-name="Manufacturing-aircraft-parts-permit" horiz-adv-x="1022" d="M129.025 217.425h323.624v-45.538h-323.624v45.538zM129.025 123.921h219.797v-45.538h-219.797v45.538zM274.747 634.554c-3.313 0.221-7.182 0.347-11.081 0.347s-7.768-0.126-11.604-0.374l0.523 0.027c-0.371 0.006-0.808 0.010-1.246 0.010-10.475 0-20.481-2.010-29.653-5.665l0.541 0.19c-46.145-17.912-80.451-77.111-80.451-147.847s33.698-128.721 79.236-146.936c8.776-3.84 19.002-6.074 29.751-6.074 0.214 0 0.427 0.001 0.64 0.003h-0.033c6.438-0.922 13.91-1.472 21.502-1.518h0.052c95.63 0 313.606 69.218 313.606 154.526s-216.154 153.312-311.784 153.312zM282.336 490.35l51.61 41.591c3.849-12.311 6.358-26.538 6.971-41.254l0.011-0.337zM340.929 469.403c-0.597-15.151-3.107-29.486-7.298-43.084l0.316 1.189-51.61 41.895zM278.086 513.727l28.841 69.825c7.429-8.766 13.826-18.76 18.792-29.549l0.334-0.809zM263.21 610.875c10.461-1.925 19.692-6.194 27.463-12.249l-0.14 0.105-27.323-66.182zM215.243 599.338l3.339 2.125c3.403 2.269 7.303 4.31 11.417 5.926l0.423 0.146c3.57 1.084 7.795 1.939 12.137 2.402l0.31 0.027v-77.415l-27.323 66.182zM179.117 552.889c2.62 6.204 5.466 11.492 8.738 16.475l-0.237-0.385c3.239 5.158 6.54 9.618 10.144 13.811l-0.126-0.149 30.359-69.825-49.181 39.77zM164.241 490.35c0 7.286 0 14.269 2.429 21.251v0c1.39 8.046 2.971 14.799 4.895 21.406l-0.341-1.369 51.61-41.591zM171.223 427.811q-2.732 10.018-4.554 20.037v0c0 6.679-1.822 13.965-2.429 21.251h58.592l-51.61-41.591zM197.939 376.202c-3.463 4.116-6.766 8.676-9.731 13.467l-0.287 0.498c-2.948 4.56-5.79 9.844-8.212 15.354l-0.289 0.736 48.27 38.859-30.359-69.521zM242.87 350.093c-5.206 0.654-9.834 1.612-14.325 2.894l0.664-0.162s-3.036 1.822-4.857 2.429-6.375 3.339-9.411 5.465v0l27.93 66.182zM253.495 452.098c-10.929 0-20.037 12.447-20.037 27.626s9.108 27.93 20.037 27.93 19.733-12.447 19.733-27.93-9.715-27.626-20.644-27.626zM264.121 348.575v78.326l27.323-66.182c-7.957-5.872-17.474-10.127-27.805-12.076l-0.428-0.067zM278.997 445.723l48.27-38.859c-5.3-11.617-11.804-21.62-19.555-30.506l0.126 0.147zM461.149 389.863c-43.427-18.553-93.946-32.881-146.617-40.582l-3.355-0.403c32.836 31.353 53.25 75.47 53.25 124.356 0 2.282-0.045 4.554-0.133 6.815l0.010-0.325c0.073 1.873 0.114 4.073 0.114 6.283 0 49.044-20.403 93.323-53.184 124.811l-0.058 0.056c56.026-8.104 106.545-22.431 154.039-42.511l-4.067 1.527c67.7-28.537 108.077-62.235 108.077-91.076s-42.199-60.414-109.899-88.951zM782.952 413.543v546.457h-782.952v-1024h782.952c128.404 4.719 230.706 109.95 230.706 239.075s-102.302 234.356-230.277 239.062l-0.429 0.013zM607.175 11.897h-531.278v872.206h552.225l-30.359-49.181c-2.099 0.43-4.512 0.675-6.983 0.675s-4.883-0.246-7.215-0.714l0.233 0.039c-18.081-4.394-31.297-20.446-31.297-39.584 0-3.078 0.342-6.076 0.99-8.958l-0.051 0.272c2.772-12.104 10.569-21.991 21.026-27.518l0.225-0.108v-62.843c-11.088-3.141-20.603-8.824-28.238-16.398l0.004 0.004c-10.825-10.96-17.512-26.029-17.512-42.66 0-21.188 10.853-39.841 27.303-50.704l0.227-0.141 17.001 25.198c-8.496 5.477-14.041 14.891-14.041 25.601 0 8.378 3.393 15.963 8.881 21.456v0c5.513 5.776 13.262 9.377 21.852 9.411h0.006c8.427-0.075 16.089-3.289 21.887-8.526l-0.029 0.026c5.776-5.513 9.377-13.262 9.411-21.852v-0.006c0.008-0.254 0.012-0.553 0.012-0.853 0-10.298-5.127-19.398-12.968-24.888l-0.098-0.065 17.608-24.894c16.208 11.069 26.708 29.458 26.708 50.299 0 28.905-20.198 53.092-47.25 59.219l-0.406 0.077v59.2c17.009 5.008 29.213 20.48 29.213 38.803 0 9.593-3.345 18.404-8.933 25.331l0.060-0.077 25.501 40.984h57.682v-458.417c-96.917-31.927-165.641-121.641-165.641-227.407 0-63.074 24.441-120.439 64.368-163.142l-0.125 0.136zM781.737 11.897c-90.205 0-163.33 73.125-163.33 163.33s73.125 163.33 163.33 163.33c90.205 0 163.33-73.125 163.33-163.33v0c-0.171-89.923-72.849-162.814-162.674-163.33h-0.049zM875.849 272.982c0 0.001 0 0.002 0 0.003 0 7.88-6.388 14.269-14.269 14.269-0.107 0-0.213-0.001-0.319-0.004h0.016c-0.866 0.215-1.861 0.339-2.884 0.339s-2.018-0.123-2.969-0.356l0.085 0.018c-5.032-2.090-8.506-6.965-8.506-12.651 0-0.142 0.002-0.283 0.006-0.423v0.021-62.235h-14.876v26.109l-5.768-3.339-40.681-22.769v26.109l-4.554-2.429-43.109-23.68v26.109l-5.768-3.339-40.681-22.769h-15.483v-124.167h212.511v122.953h-12.447zM748.95 135.76h-32.787v32.484h32.787zM799.042 135.76h-32.484v32.484h32.484zM849.134 135.76h-32.484v32.484h33.395z" />
<glyph unicode="&#xe927;" glyph-name="manufacturing-Aircraft" horiz-adv-x="1022" d="M1021.571 175.227c-0.516 131.517-107.078 237.972-238.586 238.316h-0.033v546.457h-782.952v-1024h782.952c131.86 0.345 238.62 107.318 238.62 239.226 0 0 0 0.001 0 0.001v0zM75.897 884.103h552.225l-30.359-49.181c-2.099 0.43-4.512 0.675-6.983 0.675s-4.883-0.246-7.215-0.714l0.233 0.039c-18.081-4.394-31.297-20.446-31.297-39.584 0-3.078 0.342-6.076 0.99-8.958l-0.051 0.272c2.772-12.104 10.569-21.991 21.026-27.518l0.225-0.108v-62.843c-26.619-6.825-45.979-30.602-45.979-58.902 0-21.286 10.954-40.014 27.532-50.855l0.232-0.142 17.001 25.198c-8.237 5.482-13.605 14.707-13.661 25.189v0.008c0 16.767 13.592 30.359 30.359 30.359v0c0.711 0.059 1.538 0.093 2.374 0.093 16.767 0 30.359-13.592 30.359-30.359 0-10.907-5.752-20.47-14.387-25.823l-0.13-0.075 17.304-24.894c15.873 11.109 26.125 29.307 26.125 49.899 0 0.495-0.006 0.988-0.018 1.48l0.001-0.073c-0.385 28.25-20.005 51.811-46.337 58.204l-0.415 0.085v60.11c17.009 5.008 29.213 20.48 29.213 38.803 0 9.593-3.345 18.404-8.933 25.331l0.060-0.077 25.501 40.984h57.682v-458.417c-96.917-31.927-165.641-121.641-165.641-227.407 0-63.074 24.441-120.439 64.368-163.142l-0.125 0.136h-531.278zM782.345 11.897c-90.205 0-163.33 73.125-163.33 163.33s73.125 163.33 163.33 163.33c90.205 0 163.33-73.125 163.33-163.33v0c-0.172-90.135-73.195-163.158-163.313-163.33h-0.017zM875.849 272.982c0 0.001 0 0.002 0 0.003 0 7.88-6.388 14.269-14.269 14.269-0.107 0-0.213-0.001-0.319-0.004h0.016c-7.88 0-14.269-6.388-14.269-14.269v0-62.235h-14.876v26.109l-46.449-26.109v26.109l-47.663-26.109v26.109l-46.449-26.109h-15.483v-124.167h212.511v124.167h-12.751zM815.132 168.244h34.913v-32.484h-33.395zM765.040 168.244h32.484v-32.484h-30.966zM714.645 168.244h32.787v-32.484h-31.269zM129.025 217.425h323.624v-45.538h-323.624v45.538zM129.025 123.921h219.797v-45.538h-219.797v45.538zM622.050 460.902c-0.171 30.111-24.535 54.474-54.629 54.646h-85.020l-74.379 176.384h-112.327l39.77-176.384h-52.217l-39.466 91.076h-82.879v-201.278h406.503c0.002 0 0.005 0 0.008 0 30.18 0 54.646 24.466 54.646 54.646 0 0.32-0.003 0.64-0.008 0.959l0.001-0.048zM385.252 656.413l60.717-142.079h-75.593l-30.359 142.079zM194.903 573.533h26.412l39.466-91.076h306.623c0.75 0.097 1.618 0.152 2.499 0.152 11.401 0 20.644-9.243 20.644-20.644s-9.243-20.644-20.644-20.644c-0.881 0-1.749 0.055-2.6 0.162l0.101-0.010h-372.502z" />
<glyph unicode="&#xe928;" glyph-name="manufacturing-flight-simulation-equipment" horiz-adv-x="1022" d="M387.934 704.605c-112.473 0-203.65-91.177-203.65-203.65s91.177-203.65 203.65-203.65c112.473 0 203.65 91.177 203.65 203.65v0c0 112.473-91.177 203.65-203.65 203.65v0zM387.934 358.128c-78.881 0-142.827 63.946-142.827 142.827s63.946 142.827 142.827 142.827c78.881 0 142.827-63.946 142.827-142.827v0c-0.172-78.812-64.015-142.656-142.811-142.827h-0.016zM160.378 793.872h55.678v-39.641h45.39v39.641h54.165v-39.641h45.39v39.641h53.863v-39.641h45.693v39.641h53.863v-39.641h45.39v39.641h55.678v-39.641h45.693v85.031h-546.496v-85.031h45.693v39.641zM129.21 217.418h323.48v-45.39h-323.48v45.39zM129.21 123.915h219.688v-45.39h-219.688v45.39zM474.78 491.877h-45.087l-34.799 82.61h-38.128l18.761-82.61h-39.035l-18.459 42.969h-26.326v-79.281h181.56c10.027 0 18.156 8.129 18.156 18.156s-8.129 18.156-18.156 18.156v0zM1021.579 175.357c0.001 0.27 0.002 0.589 0.002 0.909 0 131.814-106.684 238.71-238.418 239.054h-0.033v544.681h-783.13v-1024h783.13c131.802 0.516 238.449 107.481 238.449 239.355 0 0.001 0 0.001 0 0.002v0zM75.953 884.047h631.225v-481.74c-96.103-32.335-164.093-121.617-164.093-226.778 0-63.36 24.68-120.955 64.952-163.696l-0.112 0.12h-531.972zM782.222 11.953c-90.246 0-163.404 73.159-163.404 163.404s73.159 163.404 163.404 163.404c90.246 0 163.404-73.159 163.404-163.404v0c0-90.246-73.159-163.404-163.404-163.404v0zM875.726 210.761v62.033c0.002 0.091 0.003 0.198 0.003 0.306 0 7.855-6.368 14.222-14.222 14.222-0.108 0-0.215-0.001-0.322-0.004h0.016c-0.001 0-0.002 0-0.003 0-7.855 0-14.222-6.368-14.222-14.222 0-0.106 0.001-0.213 0.003-0.318v0.016-62.033h-14.827v26.024l-45.39-26.024v26.024l-47.811-26.024v26.024l-46.298-26.024h-15.433v-124.369h211.82v124.369h-12.709zM716.255 135.716v32.378h32.681v-32.378zM766.487 135.716v32.378h32.378v-32.378zM816.719 135.716v32.378h32.378v-32.378z" />
<glyph unicode="&#xe929;" glyph-name="manufacturing-fuselages" horiz-adv-x="1022" d="M129.59 217.282h323.671v-45.417h-323.671v45.417zM129.59 123.723h219.818v-45.417h-219.818v45.417zM376.658 509.767h33.609v-35.122h-33.609v35.122zM315.193 509.767h33.609v-35.122h-33.609v35.122zM253.729 509.767h33.609v-35.122h-33.609v35.122zM192.265 509.767h33.609v-35.122h-33.609v35.122zM131.103 509.767h33.609v-35.122h-33.609v35.122zM1022.183 175.196c0 0.18 0.001 0.393 0.001 0.606 0 131.892-106.747 238.851-238.558 239.195h-0.033v545.003h-783.593v-1024h783.593c131.844 0.345 238.59 107.304 238.59 239.195 0 0 0 0.001 0 0.001v0zM470.822 468.892h128.378c5.465-10.907 9.408-23.58 11.14-36.946l0.063-0.598h-534.103v130.195h359.096c0.855 0.014 1.863 0.021 2.874 0.021 47.643 0 91.245-17.302 124.866-45.965l-0.269 0.224h-90.834c-6.187 0-11.203-5.016-11.203-11.203v0-24.828c0.124-5.661 4.428-10.279 9.941-10.895l0.051-0.005zM77.209 401.069h564.381v13.928c-0.118 43.882-18.17 83.524-47.208 112.004l-0.025 0.025c-39.973 39.33-94.853 63.612-155.405 63.612-1.25 0-2.497-0.010-3.742-0.031l0.188 0.002h-359.096v293.393h552.27l-30.278-49.353c-2.092 0.516-4.493 0.812-6.964 0.812s-4.872-0.296-7.171-0.854l0.207 0.042c-18.065-4.359-31.278-20.383-31.278-39.493 0-3.173 0.364-6.262 1.053-9.225l-0.054 0.274c2.555-12.164 10.403-22.101 20.968-27.449l0.227-0.104v-62.675c-26.341-6.953-45.447-30.566-45.447-58.641 0-0.673 0.011-1.344 0.033-2.012l-0.003 0.097c0.548-20.727 11.126-38.872 27.040-49.822l0.211-0.137 16.956 25.433c-8.215 5.467-13.569 14.668-13.625 25.122v0.008c0 16.722 13.556 30.278 30.278 30.278v0c8.481-0.534 16.118-3.762 22.162-8.829l-0.059 0.048c5.601-5.602 9.141-13.265 9.385-21.754l0.001-0.046c0.004-0.192 0.007-0.419 0.007-0.647 0-10.397-5.241-19.571-13.225-25.022l-0.104-0.067 17.561-24.828c15.831 11.079 26.055 29.229 26.055 49.767 0 0.493-0.006 0.985-0.018 1.476l0.001-0.073c-0.243 16.925-7.392 32.134-18.749 42.972l-0.024 0.022c-7.367 7.991-16.948 13.837-27.768 16.569l-0.391 0.084v60.556c17.058 5.172 29.26 20.756 29.26 39.19 0 2.847-0.291 5.625-0.845 8.308l0.046-0.264c-1.444 6.425-4.296 12.036-8.224 16.713l0.049-0.060 25.433 41.178h57.831v-459.316c-96.16-32.354-164.19-121.689-164.19-226.913 0-63.397 24.695-121.026 64.99-163.793l-0.112 0.12h-533.497zM782.988 11.695c-0.090 0-0.196 0-0.303 0-90.299 0-163.501 73.202-163.501 163.501s73.202 163.501 163.501 163.501c90.299 0 163.501-73.202 163.501-163.501v0c0 0 0 0 0 0 0-90.193-73.029-163.328-163.182-163.501h-0.017zM888.96 210.621h-12.717v62.070c0 8.361-6.778 15.139-15.139 15.139s-15.139-6.778-15.139-15.139v0-62.070h-14.533v26.039l-44.206-26.039v26.039l-47.839-26.039v26.039l-46.325-26.039h-15.442v-124.442h211.946v124.442zM817.504 167.929h32.397v-32.397h-32.397zM767.243 167.929h32.7v-32.397h-33.003zM717.284 167.929h32.397v-32.397h-32.7z" />
<glyph unicode="&#xe92a;" glyph-name="manufacturing-radio-controlled-aircraft" horiz-adv-x="1021" d="M786.064 412.476v547.524h-786.064v-1024h786.064c131.575 0 238.238 106.663 238.238 238.238s-106.663 238.238-238.238 238.238v0zM608.293 11.885h-279.96l60.466 60.466c-16.902 17.525-40.587 28.411-66.814 28.419h-0.002c-26.229-0.008-49.913-10.894-66.789-28.391l-0.027-0.028 60.466-60.466h-241.866v872.229h634.898v-483.732c-96.195-32.118-164.332-121.307-164.469-226.431v-0.016c0-0.127 0-0.278 0-0.429 0-62.608 24.398-119.517 64.204-161.738l-0.109 0.117zM782.436 11.885c-0.089 0-0.195 0-0.301 0-89.832 0-162.655 72.823-162.655 162.655s72.823 162.655 162.655 162.655c89.832 0 162.655-72.823 162.655-162.655 0-0.213 0-0.425-0.001-0.637v0.033c-0.343-89.466-72.863-161.879-162.336-162.050h-0.016zM876.764 273.705c-1.057 7.066-7.083 12.423-14.361 12.423s-13.304-5.357-14.351-12.343l-0.010-0.080v-62.28h-14.814v26.303l-47.164-26.303v26.303l-47.769-26.303v26.303l-46.257-26.303h-15.419v-123.956h211.633v123.956h-11.489zM750.087 136.446h-33.861v32.652h32.652zM800.274 136.446h-33.861v32.652h32.652zM850.159 136.446h-33.861v32.652h32.35zM322.589 191.773v0c-0.053 0-0.117 0-0.18 0-51.158 0-97.426-20.933-130.708-54.7l-0.022-0.022 35.071-35.071c24.309 24.998 58.263 40.507 95.839 40.507s71.53-15.51 95.809-40.476l0.030-0.031 35.071 35.071c-33.257 33.788-79.485 54.722-130.603 54.722-0.108 0-0.216 0-0.323 0h0.017zM322.589 271.589v0c-0.059 0-0.13 0-0.2 0-73.26 0-139.525-29.951-187.218-78.276l-0.028-0.028 35.071-34.768c38.8 39.422 92.735 63.848 152.376 63.848s113.576-24.426 152.348-63.82l0.028-0.028 35.071 34.768c-47.628 48.35-113.812 78.304-186.993 78.304-0.159 0-0.318 0-0.478 0h0.025zM647.898 583.294c0 33.395-27.072 60.466-60.466 60.466v0h-94.328l-82.537 195.307h-124.561l44.141-195.307h-58.048l-43.536 102.188h-90.7v-223.121h193.493l-45.35-195.609h124.561l82.537 195.609h94.328c33.395 0 60.466 27.072 60.466 60.466v0zM385.474 801.275l68.025-157.515h-84.351l-36.582 157.515zM385.474 365.312h-52.908l35.675 157.213h85.258zM587.432 560.619h-412.986v147.538h30.233l43.838-102.188h338.915c12.523 0 22.675-10.152 22.675-22.675s-10.152-22.675-22.675-22.675v0z" />
<glyph unicode="&#xe92b;" glyph-name="NOC-to-Concerned-Entities" horiz-adv-x="1021" d="M1020.674 173.936c0 0.098 0 0.214 0 0.33 0 130.3-104.605 236.168-234.418 238.208l-0.192 0.002v547.524h-786.064v-1024h786.064c129.909 2.041 234.455 107.754 234.61 237.92v0.015zM75.885 884.115h632.782v-483.732c-96.387-31.982-164.682-121.315-164.682-226.599 0-63.021 24.47-120.327 64.428-162.935l-0.12 0.129h-532.407zM782.436 11.583c-0.090 0-0.196 0-0.302 0-89.832 0-162.655 72.823-162.655 162.655s72.823 162.655 162.655 162.655c89.832 0 162.655-72.823 162.655-162.655 0-0.106 0-0.212 0-0.319v0.016c-0.342-89.527-72.826-162.010-162.32-162.352h-0.033zM740.714 156.098l-39.606 39.606-53.513-53.815 93.118-93.118 176.26 176.26-53.513 53.513-122.747-122.445zM176.26 787.973h435.661v-75.885h-435.661v75.885zM176.26 649.202h435.661v-75.885h-435.661v75.885zM176.26 522.223h276.332v-75.885h-276.332v75.885z" />
<glyph unicode="&#xe92c;" glyph-name="open-service-center" horiz-adv-x="1021" d="M1020.674 605.062v75.885h-234.61s0 2.419 0 3.628c0 152.113-123.312 275.425-275.425 275.425s-275.425-123.312-275.425-275.425v0s0-2.419 0-3.628h-235.215v-75.885h71.35v-593.176h-71.35v-75.885h1020.674v75.885h-71.35v593.176zM510.337 884.115c110.203 0 199.539-89.337 199.539-199.539s-89.337-199.539-199.539-199.539c-110.203 0-199.539 89.337-199.539 199.539v0c0.172 110.133 89.406 199.368 199.523 199.539h0.016zM389.404 11.885v299.914h240.052v-299.914zM873.136 11.885h-166.888v375.799h-393.032v-375.799h-165.981v593.176h99.467c35.323-114.185 139.959-195.7 263.634-195.7s228.312 81.515 263.113 193.749l0.521 1.951h99.467zM411.172 667.040l-26.303-26.605 75.281-75.281 168.399 168.399c4.473 4.662 7.227 11.004 7.227 17.989s-2.754 13.326-7.236 17.998l0.009-0.009c-4.599 4.614-10.96 7.469-17.989 7.469s-13.39-2.855-17.988-7.469l-39.909-39.909-107.328 43.536-37.489-37.792 90.7-58.048-32.652-32.652z" />
<glyph unicode="&#xe92d;" glyph-name="Permit-by-DCAA" horiz-adv-x="1021" d="M784.682 412.512v547.488h-784.682v-1024h784.682c127.959 4.709 229.905 109.577 229.905 238.256s-101.946 233.547-229.477 238.243l-0.428 0.013zM438.597 618.768v-53.081h-74.616v-67.64h74.313v-485.308h-239.318v606.635zM294.825 687.014v34.578h47.621v-34.578zM608.152 11.829h-101.915v675.185h-95.848v102.218h-57.934v60.664h-67.64v-60.664h-57.63v-102.218h-96.152v-675.185h-55.204v872.341h633.024v-483.185c-96.589-31.702-165.108-121.058-165.108-226.418 0-63.017 24.512-120.31 64.522-162.862l-0.115 0.124zM782.256 11.829c-89.789 0-162.578 72.789-162.578 162.578s72.789 162.578 162.578 162.578c89.789 0 162.578-72.789 162.578-162.578v0c-0.172-89.72-72.858-162.406-162.562-162.578h-0.017zM740.701 155.905l-39.735 39.735-53.384-53.687 93.118-93.118 176.227 176.227-53.384 53.687-122.844-122.844z" />
<glyph unicode="&#xe92e;" glyph-name="register-an-aircraft" horiz-adv-x="1021" d="M1020.674 173.936c0 0.098 0 0.214 0 0.33 0 130.3-104.605 236.168-234.418 238.208l-0.192 0.002v547.524h-786.064v-1024h786.064c129.909 2.041 234.455 107.754 234.61 237.92v0.015zM75.885 884.115h632.782v-483.732c-96.387-31.982-164.682-121.315-164.682-226.599 0-63.021 24.47-120.327 64.428-162.935l-0.12 0.129h-532.407zM782.436 11.583c-0.090 0-0.196 0-0.302 0-89.832 0-162.655 72.823-162.655 162.655s72.823 162.655 162.655 162.655c89.832 0 162.655-72.823 162.655-162.655 0-0.106 0-0.212 0-0.319v0.016c-0.342-89.527-72.826-162.010-162.32-162.352h-0.033zM671.178 562.13c-0.168 36.106-29.476 65.31-65.605 65.31-0.319 0-0.638-0.002-0.956-0.007l0.048 0.001h-100.677l-90.7 211.633h-132.724l47.466-211.633h-62.28l-47.164 110.351h-99.467v-241.866h208.912l-47.466-211.633h134.236l90.7 211.633h99.165c0.362-0.007 0.788-0.011 1.216-0.011 36.066 0 65.304 29.238 65.304 65.304 0 0.323-0.002 0.645-0.007 0.967l0.001-0.049zM387.59 797.647l71.955-170.213h-90.7l-36.28 170.213zM387.59 326.614h-55.025l38.396 170.213h90.7zM159.934 536.735v160.236h30.233l48.676-110.351h365.822c13.775 0 24.942-11.167 24.942-24.942s-11.167-24.942-24.942-24.942v0zM133.631 216.262h318.658v-45.35h-318.658v45.35zM133.631 123.446h215.261v-45.35h-215.261v45.35zM913.951 212.332h-93.723v93.723h-75.885v-93.723h-93.723v-75.885h93.723v-94.025h75.885v94.025h93.723v75.885z" />
<glyph unicode="&#xe92f;" glyph-name="renew-activity-out-of-Schedule-Permit" horiz-adv-x="1021" d="M781.529 413.988c-19.96-0.216-39.205-2.85-57.589-7.621l1.657 0.365v146.934h151.166l-60.466-60.466 53.211-53.513 153.283 152.98-155.399 152.073-53.211-53.815 60.466-60.466h-149.050v90.397c0 61.279-49.677 110.956-110.956 110.956v0h-40.21v128.189h-137.561v-128.189h-149.352v128.189h-138.166v-128.189h-38.396c-61.279 0-110.956-49.677-110.956-110.956v0-673.899c0-61.279 49.677-110.956 110.956-110.956h502.477c0.034 0 0.074 0 0.114 0 25.219 0 48.446 8.53 66.953 22.862l-0.251-0.187c29.58-14.123 64.291-22.372 100.928-22.372 131.909 0 238.843 106.933 238.843 238.843 0 131.785-106.732 238.641-238.469 238.842h-0.020zM488.872 907.999h34.164v-76.188h-34.164zM201.051 907.999h34.466v-76.188h-34.466zM75.885 46.956v673.899c0 19.369 15.702 35.071 35.071 35.071v0h502.477c19.369 0 35.071-15.702 35.071-35.071v0-90.7h-340.124v-75.885h340.124v-181.399c-64.508-43.442-106.376-116.203-106.376-198.742 0-63.586 24.848-121.368 65.363-164.167l-0.103 0.11h-496.43c-19.419 0.153-35.103 15.931-35.103 35.372 0 0.532 0.012 1.061 0.035 1.588l-0.003-0.075zM781.529 11.885c-90.164 0.003-163.255 73.095-163.255 163.26s73.094 163.26 163.26 163.26 163.26-73.094 163.26-163.26c0-0.425-0.002-0.85-0.005-1.274v0.065c-0.685-89.644-73.514-162.050-163.255-162.050-0.002 0-0.003 0-0.005 0v0zM783.948 46.049l34.164 34.164-35.071 35.071h114.282v48.373h-231.284l117.91-117.607zM745.249 269.473l34.768-34.768h-113.979v-48.676h231.284l-117.91 117.91-34.164-34.466z" />
<glyph unicode="&#xe930;" glyph-name="renew-Aviation-Club-permit" horiz-adv-x="1021" d="M129.096 218.076h323.193v-45.35h-323.193v45.35zM129.096 124.655h219.493v-45.35h-219.493v45.35zM650.015 591.759v39.606c-7.817 40.773-37.779 72.955-76.639 83.867l-0.758 0.182c13.307 9.16 21.919 24.309 21.919 41.469 0 27.718-22.47 50.187-50.187 50.187s-50.187-22.47-50.187-50.187c0-17.16 8.612-32.308 21.75-41.359l0.169-0.11c-13.779-3.798-25.792-9.928-36.212-18.013l0.235 0.175c-14.308 11.076-31.157 19.692-49.457 24.845l-1.033 0.248c17.985 12.358 29.629 32.815 29.629 55.993 0 37.402-30.32 67.722-67.722 67.722s-67.722-30.32-67.722-67.722c0-23.177 11.643-43.635 29.4-55.844l0.229-0.149c-19.574-5.403-36.634-14.131-51.422-25.641l0.328 0.245c-10.37 8.006-22.578 14.234-35.833 17.96l-0.749 0.18c13.307 9.16 21.919 24.309 21.919 41.469 0 27.718-22.47 50.187-50.187 50.187s-50.187-22.47-50.187-50.187c0-17.16 8.612-32.308 21.75-41.359l0.169-0.11c-39.569-11.060-69.466-43.279-76.991-83.385l-0.104-0.664v-194.4h517.895zM544.198 776.484c10.853 0 19.652-8.798 19.652-19.652v0c0-0.001 0-0.001 0-0.002 0-10.914-8.762-19.781-19.636-19.951h-0.016c-10.952 0.167-19.787 9.002-19.954 19.938v0.016c0.17 10.889 9.038 19.652 19.952 19.652 0.001 0 0.002 0 0.002 0v0zM544.198 687.901c35.521-0.083 65.391-24.175 74.249-56.903l0.124-0.54h-90.7c-6.096 17.371-14.937 32.348-26.141 45.212l0.14-0.165c11.924 7.773 26.518 12.396 42.192 12.396 0.047 0 0.095 0 0.142 0h-0.007zM480.709 654.947c5.558-6.851 10.496-14.594 14.504-22.872l0.31-0.71h-25.698c2.521 8.973 6.245 16.818 11.061 23.856l-0.177-0.274zM393.032 816.090c20.044-0.834 35.978-17.286 35.978-37.459 0-20.705-16.784-37.489-37.489-37.489-20.694 0-37.472 16.767-37.489 37.457v0.002c0.16 20.75 17.018 37.509 37.79 37.509 0.426 0 0.85-0.007 1.272-0.021l-0.062 0.002zM393.032 697.273c0.1 0 0.217 0 0.335 0 24.966 0 48.053-8.048 66.806-21.692l-0.326 0.226c-9.58-12.442-16.479-27.445-19.551-43.798l-0.101-0.645h-96.746c-3.157 16.828-9.832 31.708-19.253 44.431l0.206-0.291c18.346 13.612 41.434 21.789 66.432 21.789 0.773 0 1.543-0.008 2.312-0.023l-0.115 0.002zM302.332 654.342c4.515-6.576 8.050-14.242 10.17-22.476l0.109-0.501h-25.094c4.204 8.765 9.146 16.318 14.938 23.127l-0.124-0.15zM238.238 775.275c10.853 0 19.652-8.798 19.652-19.652v0c0.001-0.089 0.002-0.195 0.002-0.3 0-11.020-8.934-19.954-19.954-19.954s-19.954 8.934-19.954 19.954c0 11.020 8.934 19.954 19.954 19.954 0.106 0 0.211-0.001 0.316-0.002h-0.016zM238.238 687.598c0.011 0 0.024 0 0.038 0 15.788 0 30.441-4.86 42.545-13.166l-0.256 0.166c-10.637-12.613-19.25-27.36-25.079-43.441l-0.317-1.002h-90.7c8.696 33.163 38.202 57.306 73.417 57.745h0.050zM619.782 467.198h-457.127v133.933h457.127zM476.778 498.943c0 8.683-7.039 15.721-15.721 15.721v0h-37.792l-30.233 70.443h-32.954l15.721-70.443h-32.35l-15.721 36.885h-23.28v-68.327h156.608c8.683 0 15.721 7.039 15.721 15.721v0zM782.436 413.988v546.012h-782.436v-1023.093h760.064c7.256 0 14.21 0 21.466 0 128.367 4.709 230.643 109.907 230.643 238.994s-102.276 234.285-230.215 238.981l-0.428 0.012zM606.479 12.792h-530.593v871.322h630.665v-483.732c-95.929-32.358-163.777-121.516-163.777-226.521 0-62.749 24.228-119.838 63.84-162.425l-0.135 0.146zM781.529 12.792c-90.16 0.008-163.246 73.099-163.246 163.26 0 90.166 73.094 163.26 163.26 163.26s163.26-73.094 163.26-163.26c0-0.744-0.005-1.487-0.015-2.229l0.001 0.112c-0.685-89.644-73.514-162.050-163.255-162.050-0.002 0-0.003 0-0.005 0v0zM783.948 46.049l34.164 34.164-35.071 35.071h114.282v48.373h-231.284l117.91-117.607zM745.249 269.473l34.768-34.768h-113.979v-48.676h231.284l-117.91 117.91-34.164-34.466z" />
<glyph unicode="&#xe931;" glyph-name="renew-aviation-institute" horiz-adv-x="1021" d="M630.363 576.34l-96.444 96.444v35.373l-142.701 143.003-143.003-143.003v-35.373l-97.049-96.444v-188.958h479.197zM248.215 421.848h-61.978v140.282l61.978 61.978zM412.381 421.848h-42.629v47.769l21.466 16.628 21.163-16.628zM499.756 421.848h-52.908v64.397l-55.629 43.838-55.629-43.838v-64.397h-52.908v272.099l108.537 108.537 108.537-108.537zM596.2 421.848h-62.28v202.26l62.28-61.978zM344.054 699.994l42.629-26.908-14.814-15.117-26.001 10.582-12.396-12.396 35.071-35.071 77.699 78.002c2.234 2.002 3.634 4.896 3.634 8.117 0 0.122-0.002 0.244-0.006 0.366v-0.018c0 0.015 0 0.033 0 0.050 0 3.219-1.397 6.111-3.618 8.104l-0.010 0.009c-2.096 2.195-5.046 3.56-8.314 3.56s-6.218-1.365-8.31-3.556l-0.004-0.004-18.442-18.14-48.373 20.559zM329.845 560.619v0h26.001v26.001h-26.001v-26.001zM426.289 560.619v0h26.001v26.001h-26.001v-26.001zM576.85 538.246v0h-26.001v-26.001h26.001v26.001zM576.85 475.966v0h-26.001v-26.001h26.001v26.001zM231.587 538.246v0h-26.001v-26.001h26.001v26.001zM231.587 475.966v0h-26.001v-26.001h26.001v26.001zM129.096 218.076h323.193v-45.35h-323.193v45.35zM129.096 124.655h219.493v-45.35h-219.493v45.35zM782.436 413.988v546.012h-782.436v-1023.093h760.064c7.256 0 14.21 0 21.466 0 128.367 4.709 230.643 109.907 230.643 238.994s-102.276 234.285-230.215 238.981l-0.428 0.012zM75.885 884.115h630.665v-483.732c-95.929-32.358-163.777-121.516-163.777-226.521 0-62.749 24.228-119.838 63.84-162.425l-0.135 0.146h-530.593zM781.529 11.583c-90.166 0-163.26 73.094-163.26 163.26s73.094 163.26 163.26 163.26c90.166 0 163.26-73.094 163.26-163.26v0c-0.172-90.097-73.163-163.088-163.243-163.259h-0.016zM783.948 46.049l34.164 34.164-35.071 35.071h114.282v48.373h-231.284l117.91-117.607zM745.249 269.473l34.768-34.768h-113.979v-48.676h231.284l-117.91 117.91-34.164-34.466z" />
<glyph unicode="&#xe932;" glyph-name="renew-flight-simulation-equipment-permit" horiz-adv-x="1022" d="M387.934 704.605c-112.473 0-203.65-91.177-203.65-203.65s91.177-203.65 203.65-203.65c112.473 0 203.65 91.177 203.65 203.65v0c0 112.473-91.177 203.65-203.65 203.65v0zM387.934 358.128c-78.881 0-142.827 63.946-142.827 142.827s63.946 142.827 142.827 142.827c78.881 0 142.827-63.946 142.827-142.827v0c-0.172-78.812-64.015-142.656-142.811-142.827h-0.016zM160.378 793.872h55.678v-39.641h45.39v39.641h54.165v-39.641h45.39v39.641h53.863v-39.641h45.39v39.641h54.165v-39.641h45.39v39.641h55.678v-39.641h45.693v85.031h-546.496v-85.031h45.693v39.641zM129.21 217.418h323.48v-45.39h-323.48v45.39zM129.21 123.915h219.688v-45.39h-219.688v45.39zM474.78 491.877h-45.087l-34.799 82.61h-38.128l18.761-82.61h-39.035l-18.459 42.969h-26.326v-79.281h181.56c10.027 0 18.156 8.129 18.156 18.156s-8.129 18.156-18.156 18.156v0zM1021.579 175.357c0.001 0.27 0.002 0.589 0.002 0.909 0 131.814-106.684 238.71-238.418 239.054h-0.033v544.681h-783.13v-1024h783.13c131.802 0.516 238.449 107.481 238.449 239.355 0 0.001 0 0.001 0 0.002v0zM75.953 884.047h631.225v-481.74c-96.103-32.335-164.093-121.617-164.093-226.778 0-63.36 24.68-120.955 64.952-163.696l-0.112 0.12h-531.972zM782.222 11.953c-90.246 0-163.404 73.159-163.404 163.404s73.159 163.404 163.404 163.404c90.246 0 163.404-73.159 163.404-163.404v0c0-90.246-73.159-163.404-163.404-163.404v0zM784.643 46.147l34.194 34.496-35.102 34.799h114.080v48.719h-231.187l118.014-118.014zM745.91 270.071l34.799-35.102h-114.080v-48.416h231.187l-117.712 117.712-34.194-34.194z" />
<glyph unicode="&#xe933;" glyph-name="renew-manufacture-aircraft-parts-permit" horiz-adv-x="1021" d="M129.213 218.085h323.336v-45.498h-323.336v45.498zM129.213 124.664h219.602v-45.498h-219.602v45.498zM274.502 634.844c-3.31 0.221-7.176 0.346-11.071 0.346s-7.761-0.126-11.593-0.373l0.522 0.027c-0.37 0.006-0.807 0.010-1.245 0.010-10.466 0-20.463-2.008-29.627-5.659l0.541 0.19c-46.104-17.896-80.379-77.043-80.379-147.716s33.668-128.607 79.166-146.806c8.768-3.836 18.986-6.069 29.725-6.069 0.213 0 0.427 0.001 0.64 0.003h-0.033c6.432-0.921 13.898-1.471 21.483-1.516h0.052c95.545 0 313.327 69.156 313.327 154.389s-215.962 153.175-311.507 153.175zM282.085 490.768l51.564 41.555c3.846-12.3 6.352-26.514 6.965-41.217l0.011-0.337zM340.626 469.839c-0.754-15.2-3.252-29.508-7.305-43.146l0.328 1.288-51.564 41.858zM277.839 514.123l28.815 69.763c7.422-8.758 13.814-18.743 18.775-29.523l0.334-0.809zM262.976 611.185c10.452-1.924 19.675-6.188 27.439-12.238l-0.14 0.105-27.299-66.123zM215.052 599.659l3.336 2.123c3.4 2.267 7.297 4.306 11.407 5.92l0.422 0.146c3.567 1.083 7.788 1.938 12.127 2.4l0.309 0.027v-77.346l-27.299 66.123zM178.957 553.251c2.618 6.199 5.461 11.482 8.73 16.461l-0.237-0.385c3.236 5.154 6.534 9.61 10.135 13.799l-0.125-0.149 30.332-69.763-49.137 39.735zM164.095 490.768c0 7.28 0 14.256 2.427 21.232v0c1.389 8.039 2.969 14.786 4.891 21.387l-0.341-1.368 51.564-41.555zM171.071 428.284q-2.73 10.009-4.55 20.019v0c0 6.673-1.82 13.953-2.427 21.232h58.54l-51.564-41.555zM197.763 376.72c-3.46 4.113-6.76 8.668-9.723 13.455l-0.287 0.498c-2.945 4.556-5.785 9.835-8.205 15.34l-0.288 0.736 48.227 38.825-30.332-69.46zM242.654 350.635c-5.201 0.653-9.825 1.61-14.312 2.892l0.663-0.162s-3.033 1.82-4.853 2.427-6.37 3.336-9.403 5.46v0l27.905 66.123zM253.27 452.55c-10.919 0-19.716 12.436-19.716 27.602s8.796 27.905 19.716 27.905 19.716-12.436 19.716-27.905-9.706-27.602-20.626-27.602zM263.886 349.118v78.256l27.299-66.123c-7.95-5.867-17.458-10.118-27.78-12.066l-0.428-0.067zM278.749 446.18l48.227-38.825c-5.295-11.607-11.793-21.601-19.538-30.479l0.126 0.147zM460.739 390.37c-43.389-18.537-93.863-32.852-146.487-40.546l-3.352-0.402c32.807 31.325 53.203 75.403 53.203 124.246 0 2.28-0.044 4.55-0.133 6.809l0.010-0.325c0.085 2.022 0.134 4.393 0.134 6.777 0 48.848-20.401 92.931-53.148 124.193l-0.067 0.063c55.976-8.096 106.45-22.411 153.902-42.473l-4.063 1.525c67.64-28.512 107.981-62.18 107.981-90.995s-42.161-60.36-109.801-88.872zM782.256 414.028v545.972h-782.256v-1023.090h760.114c7.28 0 14.256 0 21.536 0 132.004 0 239.014 107.010 239.014 239.014s-107.010 239.014-239.014 239.014v0zM606.635 12.739h-530.806v871.431h551.735l-30.332-49.137c-2.097 0.429-4.508 0.675-6.976 0.675s-4.879-0.246-7.209-0.714l0.233 0.039c-18.539-4.030-32.22-20.298-32.22-39.762 0-15.6 8.789-29.148 21.685-35.961l0.221-0.107v-62.787c-26.596-6.819-45.939-30.575-45.939-58.849 0-21.267 10.944-39.979 27.508-50.809l0.232-0.142 16.986 25.175c-8.23 5.477-13.593 14.694-13.649 25.167v0.008c0 16.752 13.58 30.332 30.332 30.332v0c8.419-0.075 16.074-3.286 21.868-8.519l-0.029 0.026c5.771-5.509 9.369-13.25 9.403-21.833v-0.006c0.008-0.254 0.012-0.552 0.012-0.852 0-10.289-5.123-19.381-12.957-24.865l-0.098-0.065 17.592-24.872c16.001 11.083 26.349 29.346 26.349 50.026 0 28.758-20.011 52.843-46.869 59.088l-0.41 0.080v60.664c16.993 5.004 29.187 20.462 29.187 38.768 0 9.584-3.342 18.388-8.925 25.309l0.060-0.077 25.479 40.948h57.63v-459.526c-95.895-32.439-163.698-121.611-163.698-226.618 0-62.717 24.186-119.785 63.741-162.385l-0.138 0.15zM781.953 12.739c-90.124 0-163.185 73.060-163.185 163.185s73.060 163.185 163.185 163.185c90.124 0 163.185-73.060 163.185-163.185v0c0.002-0.27 0.003-0.59 0.003-0.91 0-90.124-73.060-163.185-163.185-163.185-0.108 0-0.215 0-0.323 0h0.017zM783.773 46.104l34.275 34.275-34.882 34.882h114.047v48.531h-231.128l117.687-117.687zM745.251 269.649l34.882-34.882h-114.047v-48.531h231.128l-117.687 117.687-34.275-34.275z" />
<glyph unicode="&#xe934;" glyph-name="renew-manufacturing-aircraft-permit" horiz-adv-x="1022" d="M129.21 217.418h323.48v-45.39h-323.48v45.39zM129.21 123.915h219.688v-45.39h-219.688v45.39zM622.147 460.709c0 0 0 0.001 0 0.001 0 30.143-24.349 54.598-54.452 54.77h-85.349l-74.44 176.416h-112.265l39.943-176.416h-52.35l-39.338 90.78h-83.215v-200.019h406.998c30.082 0 54.468 24.386 54.468 54.468v0zM385.21 657.4l60.52-142.222h-75.348l-32.076 142.222zM194.875 573.277h26.629l39.338-90.78h306.837c11.364 0 20.577-9.213 20.577-20.577s-9.213-20.577-20.577-20.577h-372.804zM1021.579 175.357c0.001 0.27 0.002 0.589 0.002 0.909 0 131.814-106.684 238.71-238.418 239.054h-0.033v544.681h-783.13v-1024h783.13c131.802 0.516 238.449 107.481 238.449 239.355 0 0.001 0 0.001 0 0.002v0zM75.953 884.047h552.246l-30.26-49.324c-2.138 0.359-4.6 0.564-7.111 0.564s-4.973-0.205-7.372-0.6l0.261 0.035c-18.703-3.855-32.565-20.186-32.565-39.755 0-15.73 8.957-29.368 22.048-36.092l0.228-0.106v-62.638c-11.052-3.131-20.536-8.795-28.146-16.345l0.004 0.004c-10.502-10.87-16.974-25.694-16.974-42.029 0-0.65 0.010-1.298 0.031-1.943l-0.002 0.094c0.253-20.632 10.792-38.749 26.716-49.49l0.215-0.137 16.946 25.116c-7.99 5.665-13.24 14.74-13.615 25.059l-0.002 0.057c0 16.712 13.548 30.26 30.26 30.26v0c8.504-0.026 16.252-3.236 22.121-8.5l-0.031 0.027c5.757-5.496 9.347-13.219 9.381-21.781v-0.006c0.014-0.342 0.022-0.743 0.022-1.146 0-10.269-5.115-19.343-12.936-24.813l-0.098-0.065 17.248-24.813c16.223 11.024 26.74 29.392 26.74 50.215 0 17.421-7.361 33.123-19.142 44.165l-0.033 0.031c-7.221 7.415-16.308 12.978-26.504 15.932l-0.428 0.106v60.52c16.953 4.992 29.118 20.414 29.118 38.677 0 9.562-3.334 18.344-8.904 25.249l0.060-0.077 25.418 41.154h57.797v-459.348c-96.103-32.335-164.093-121.617-164.093-226.778 0-63.36 24.68-120.955 64.952-163.696l-0.112 0.12h-533.485zM782.222 11.953c-90.246 0-163.404 73.159-163.404 163.404s73.159 163.404 163.404 163.404c90.246 0 163.404-73.159 163.404-163.404v0c0-90.246-73.159-163.404-163.404-163.404v0zM784.643 46.147l34.194 34.496-35.102 34.799h114.383v48.719h-231.489l118.014-118.014zM745.91 270.071l34.799-35.102h-114.080v-48.416h231.489l-118.014 117.712-34.194-34.194z" />
<glyph unicode="&#xe935;" glyph-name="renew-manufacturing-fuselages-permit" horiz-adv-x="1021" d="M129.437 218.159h323.289v-45.363h-323.289v45.363zM129.437 124.711h219.558v-45.363h-219.558v45.363zM376.213 510.299h33.569v-35.081h-33.569v35.081zM314.821 510.299h33.569v-35.081h-33.569v35.081zM253.429 510.299h33.569v-35.081h-33.569v35.081zM192.038 510.299h33.569v-35.081h-33.569v35.081zM130.949 510.299h33.569v-35.081h-33.569v35.081zM782.667 413.826v546.174h-782.667v-1022.79h760.591c3.21-0.22 6.959-0.345 10.736-0.345s7.525 0.125 11.24 0.372l-0.504-0.027c131.948 0 238.913 106.965 238.913 238.913s-106.965 238.913-238.913 238.913v0zM76.21 562.013h358.672c0.789 0.012 1.72 0.018 2.652 0.018 47.657 0 91.278-17.278 124.941-45.911l-0.274 0.227h-90.727c-6.18 0-11.19-5.010-11.19-11.19v0-24.799c0.169-6.048 5.112-10.887 11.186-10.887 0.001 0 0.003 0 0.004 0h128.227c5.458-10.894 9.397-23.552 11.126-36.903l0.063-0.597h-534.682zM606.658 12.815h-530.448v388.914h564.621v13.911c-0.118 43.83-18.148 83.425-47.153 111.871l-0.025 0.025c-39.926 39.283-94.741 63.537-155.222 63.537-1.248 0-2.494-0.010-3.737-0.031l0.187 0.002h-358.672v293.047h551.617l-30.242-49.295c-2.089 0.515-4.488 0.811-6.956 0.811s-4.866-0.296-7.162-0.853l0.207 0.042c-18.044-4.354-31.241-20.359-31.241-39.447 0-3.17 0.364-6.254 1.052-9.214l-0.054 0.274c2.552-12.149 10.39-22.075 20.943-27.417l0.226-0.104v-62.601c-26.31-6.945-45.394-30.529-45.394-58.572 0-0.673 0.011-1.343 0.033-2.010l-0.003 0.097c0.548-20.703 11.113-38.826 27.008-49.763l0.21-0.137 16.936 25.403c-8.205 5.461-13.553 14.65-13.609 25.093v0.008c0 16.702 13.54 30.242 30.242 30.242v0c0.888 0.092 1.918 0.145 2.96 0.145 16.702 0 30.242-13.54 30.242-30.242 0-11.109-5.99-20.819-14.916-26.076l-0.141-0.077 17.54-24.799c15.812 11.066 26.025 29.194 26.025 49.708 0 0.493-0.006 0.984-0.018 1.474l0.001-0.073c0.008 0.371 0.013 0.808 0.013 1.246 0 28.583-19.827 52.535-46.477 58.854l-0.411 0.082v58.972c17.038 5.166 29.226 20.732 29.226 39.144 0 2.843-0.291 5.618-0.844 8.298l0.046-0.264c-1.442 6.418-4.291 12.022-8.214 16.693l0.049-0.060 25.403 41.129h57.763v-459.076c-95.958-32.367-163.826-121.552-163.826-226.588 0-62.767 24.235-119.874 63.859-162.473l-0.135 0.147zM782.063 12.815c-0.084 0-0.184 0-0.285 0-90.192 0-163.308 73.115-163.308 163.308s73.115 163.308 163.308 163.308c90.192 0 163.308-73.115 163.308-163.308 0-0.851-0.007-1.7-0.019-2.547l0.002 0.128c-0.854-89.436-73.471-161.628-162.989-161.796h-0.016zM784.18 46.082l34.174 34.174-34.778 35.081h114.013v48.387h-231.050l117.642-117.642zM745.47 269.571l35.081-34.778h-114.013v-48.69h231.050l-117.944 117.944-34.174-34.476z" />
<glyph unicode="&#xe936;" glyph-name="renew-manufacturing-radio-controlled-aircraft-permit" horiz-adv-x="1021" d="M786.064 412.476v547.524h-786.064v-1024h786.064c131.575 0 238.238 106.663 238.238 238.238s-106.663 238.238-238.238 238.238v0zM608.293 11.885h-279.96l60.466 60.466c-16.861 17.53-40.515 28.419-66.714 28.419-0.036 0-0.072 0-0.107 0h0.006c-26.229-0.008-49.913-10.894-66.789-28.391l-0.027-0.028 60.466-60.466h-241.866v872.229h634.898v-483.732c-96.195-32.118-164.332-121.307-164.469-226.431v-0.016c0-0.127 0-0.278 0-0.429 0-62.608 24.398-119.517 64.204-161.738l-0.109 0.117zM782.436 11.885c-0.089 0-0.195 0-0.301 0-89.832 0-162.655 72.823-162.655 162.655s72.823 162.655 162.655 162.655c89.832 0 162.655-72.823 162.655-162.655 0-0.213 0-0.425-0.001-0.637v0.033c-0.343-89.466-72.863-161.879-162.336-162.050h-0.016zM322.589 191.773v0c-0.053 0-0.117 0-0.18 0-51.158 0-97.426-20.933-130.708-54.7l-0.022-0.022 35.071-35.071c24.309 24.998 58.263 40.507 95.839 40.507s71.53-15.51 95.809-40.476l0.030-0.031 35.071 35.071c-33.257 33.788-79.485 54.722-130.603 54.722-0.108 0-0.216 0-0.323 0h0.017zM322.589 271.589v0c-0.059 0-0.13 0-0.2 0-73.26 0-139.525-29.951-187.218-78.276l-0.028-0.028 35.071-34.768c38.8 39.422 92.735 63.848 152.376 63.848s113.576-24.426 152.348-63.82l0.028-0.028 35.071 34.768c-47.628 48.35-113.812 78.304-186.993 78.304-0.159 0-0.318 0-0.478 0h0.025zM647.898 583.294c0 33.395-27.072 60.466-60.466 60.466v0h-94.328l-82.537 195.307h-124.561l44.141-195.307h-58.048l-43.536 102.188h-90.7v-223.121h193.493l-45.35-195.609h124.561l82.537 195.609h94.328c33.395 0 60.466 27.072 60.466 60.466v0zM385.474 801.275l68.025-157.515h-84.351l-36.582 157.515zM385.474 365.312h-52.908l35.675 157.213h85.258zM587.432 560.619h-412.986v147.538h30.233l43.838-102.188h338.915c12.523 0 22.675-10.152 22.675-22.675s-10.152-22.675-22.675-22.675v0zM784.855 45.444l34.466 34.164-35.071 35.071h113.979v48.373h-230.982l117.607-117.607zM746.156 268.868l35.071-35.071h-113.979v-48.373h230.982l-117.607 117.91-34.466-34.466z" />
<glyph unicode="&#xe937;" glyph-name="temporary-exemption" horiz-adv-x="1021" d="M786.064 412.476v547.524h-786.064v-1024h786.064c131.575 0 238.238 106.663 238.238 238.238s-106.663 238.238-238.238 238.238v0zM608.293 11.885h-532.407v872.229h632.782v-483.732c-96.195-32.118-164.332-121.307-164.469-226.431v-0.016c0-0.127 0-0.278 0-0.429 0-62.608 24.398-119.517 64.204-161.738l-0.109 0.117zM782.436 11.885c-0.089 0-0.195 0-0.301 0-89.832 0-162.655 72.823-162.655 162.655s72.823 162.655 162.655 162.655c89.832 0 162.655-72.823 162.655-162.655 0-0.213 0-0.425-0.001-0.637v0.033c-0.343-89.466-72.863-161.879-162.336-162.050h-0.016zM176.26 787.973h435.661v-75.885h-435.661v75.885zM176.26 649.202h435.661v-75.885h-435.661v75.885zM176.26 522.223h276.332v-75.885h-276.332v75.885zM843.81 289.124l-61.373-61.373-61.373 61.373-53.815-53.513 61.373-61.373-61.373-61.373 53.815-53.513 61.373 61.373 61.373-61.373 53.513 53.513-61.373 61.373 61.373 61.373-53.513 53.513z" />
<glyph unicode="&#xe938;" glyph-name="air-sports-event" d="M1024 960h-1024l166.627-166.627-163.598-163.598 42.414-42.414 166.627 163.598 121.183-121.183-96.947-96.947 63.621-63.621-299.929-296.899 112.095-112.095 224.189 224.189 12.118-12.118-224.189-224.189 112.095-112.095 296.899 296.899 63.621-63.621 96.947 96.947 121.183-121.183-163.598-163.598 42.414-42.414 163.598 163.598 166.627-166.627v1024zM372.639 587.361l121.183 121.183 36.355 6.059 6.059-6.059-196.923-196.923-21.207 21.207 54.533 54.533zM236.308 23.858l-27.266 27.266 224.189 224.189-96.947 96.947-224.189-224.189-27.266 24.237 254.485 254.485 151.479-151.479-254.485-251.456zM533.207 320.757l-148.45 148.45 196.923 196.923 145.42-151.479-193.893-193.893zM733.16 720.663c12.118 0 27.266-6.059 36.355-15.148 21.207-21.207 21.207-51.503 0-72.71-9.089-9.089-21.207-15.148-36.355-15.148-12.118 0-27.266 6.059-36.355 15.148-21.207 21.207-21.207 51.503 0 72.71v0c9.089 9.089 21.207 15.148 36.355 15.148zM596.828 257.136l-21.207 21.207 196.923 196.923 6.059-6.059-6.059-36.355-175.716-175.716zM948.26 120.805l-202.982 202.982 81.799 81.799 12.118 84.828-72.71 72.71c18.178 6.059 33.325 15.148 45.444 27.266 42.414 42.414 42.414 115.124 0 157.538 0 0 0 0 0 0-21.207 21.207-48.473 33.325-78.769 33.325s-57.562-12.118-78.769-33.325c-12.118-12.118-21.207-27.266-27.266-45.444l-72.71 72.71-84.828-12.118-81.799-81.799-206.012 202.982h763.456v-763.456zM562.321 49.839l141.387 141.387 42.844-42.844-141.387-141.387-42.844 42.844zM490.665-18.049l47.129 47.129 42.844-42.844-47.129-47.129-42.844 42.844zM70.775 541.281l141.387 141.387 42.844-42.844-141.387-141.387-42.844 42.844zM1.65 469.617l47.129 47.129 42.844-42.844-47.129-47.129-42.844 42.844zM3.030-60.97h175.716l-175.716 178.746z" />
<glyph unicode="&#xe939;" glyph-name="Fly-Aircraft-for-aerial-filming" horiz-adv-x="1027" d="M864.104 723.646l-149.276-191.45h-60.681v231.196h-71.301v36.105h-30.341v84.347c166.045-1.532 327.82-12.511 486.816-32.434l-20.478 2.093 8.495 76.155c-154.221 19.846-332.622 31.173-513.669 31.173s-359.448-11.327-534.534-33.31l20.865 2.137 9.406-76.155c138.495 17.809 300.269 28.787 464.299 30.326l2.038 0.015v-84.347h-35.802v-36.105h-125.914c-53.489-0.044-100.609-27.275-128.293-68.618l-0.352-0.559-68.873-103.765c-67.159-19.114-115.514-79.914-115.514-152.007 0-87.135 70.637-157.772 157.772-157.772 0.077 0 0.154 0 0.231 0h11.214v-105.282h-76.155c-9.216 0-16.687 7.471-16.687 16.687v32.465h-75.852v-32.465c0.172-51.039 41.5-92.367 92.523-92.539h510.652c9.539-38.319 28.396-71.356 54.055-97.747l-0.048 0.050 7.585-7.585c4.463-4.461 9.213-8.634 14.221-12.49l0.342-0.253c35.775-28.368 81.574-45.51 131.375-45.511v0c1.362-0.031 2.966-0.049 4.575-0.049 117.297 0 212.385 95.088 212.385 212.385 0 82.69-47.256 154.343-116.235 189.425l-1.207 0.557 114.081 385.327zM248.491 651.738c14.317 21.301 38.304 35.143 65.528 35.195h75.556v-91.022h-177.19zM467.551 175.388h-221.487v105.282h221.487zM600.443 175.388h-57.041v105.282h100.731c-22.991-29.102-38.639-65.003-43.583-104.236l-0.108-1.046zM916.897 260.343c7.551-6.672 14.153-14.141 19.76-22.345l0.265-0.411c17.618-24.437 28.187-54.975 28.217-87.981v-0.007c0-83.784-67.92-151.704-151.704-151.704v0c-0.288-0.002-0.629-0.003-0.97-0.003-32.653 0-62.862 10.463-87.458 28.219l0.44-0.302c-8.628 5.761-16.099 12.268-22.656 19.608l-0.1 0.114c-27.695 27.619-44.829 65.815-44.829 108.013 0 84.245 68.294 152.539 152.539 152.539 42.047 0 80.121-17.012 107.713-44.529l-0.003 0.003zM847.113 386.257l-193.574-28.52h-494.554c-45.243 0-81.92 36.677-81.92 81.92s36.677 81.92 81.92 81.92v0h306.441v165.357h111.047v-230.59h174.156l149.276 191.45h23.059zM810.705 201.481c-29.361-0.172-53.096-24.014-53.096-53.399 0-29.492 23.908-53.4 53.4-53.4s53.399 23.907 53.4 53.399v0c0 0 0 0.001 0 0.001 0 29.492-23.908 53.4-53.4 53.4-0.107 0-0.213 0-0.32-0.001h0.016zM810.705 110.459c-20.846 0.348-37.612 17.328-37.612 38.224 0 21.113 17.116 38.229 38.229 38.229 20.792 0 37.707-16.598 38.217-37.267l0.001-0.047c0.007-0.273 0.011-0.593 0.011-0.915 0-21.113-17.116-38.229-38.229-38.229-0.217 0-0.434 0.002-0.65 0.005h0.033zM829.212 149.599c0-10.222-8.286-18.508-18.508-18.508s-18.508 8.286-18.508 18.508c0 10.222 8.286 18.508 18.508 18.508s18.508-8.286 18.508-18.508zM876.847 201.481c-0.089 0.003-0.194 0.004-0.299 0.004-6.032 0-10.923-4.89-10.923-10.923s4.89-10.923 10.923-10.923c6.032 0 10.923 4.89 10.923 10.923 0 0.105-0.001 0.21-0.004 0.315v-0.015c-0.164 5.798-4.822 10.455-10.604 10.619h-0.015zM701.478 219.079v-138.961c-0.010-0.197-0.016-0.427-0.016-0.658 0-7.286 5.584-13.269 12.705-13.901l0.053-0.004h192.967c7.313 0.485 13.061 6.535 13.061 13.928 0 0.224-0.005 0.446-0.016 0.667l0.001-0.031v138.961c0.009 0.19 0.014 0.412 0.014 0.636 0 7.393-5.748 13.443-13.019 13.926l-0.042 0.002h-12.136v9.406c0 3.351-2.717 6.068-6.068 6.068h-24.576c-3.351 0-6.068-2.717-6.068-6.068v0-9.406h-144.119c-7.175-0.637-12.759-6.619-12.759-13.905 0-0.232 0.006-0.462 0.017-0.691l-0.001 0.032zM724.233 210.887h173.246v-121.363h-173.246z" />
<glyph unicode="&#xe93a;" glyph-name="Fly-Drone-During-Event" horiz-adv-x="1022" d="M901.98 828.291h-75.089v131.709h-160.776v-131.709h-308.835v131.709h-161.987v-131.709h-74.181c-66.888 0-121.112-54.224-121.112-121.112v0-650.976c0-66.888 54.224-121.112 121.112-121.112v0h780.868c66.888 0 121.112 54.224 121.112 121.112v0 651.884c-0.515 66.496-54.54 120.203-121.108 120.203-0.001 0-0.002 0-0.004 0v0zM726.671 899.444h39.361v-71.153h-39.361zM256.151 899.444h40.27v-71.153h-40.27zM946.186 56.203c0 0 0-0.001 0-0.001 0-24.475-19.755-44.336-44.19-44.507h-780.884c-24.451 0.172-44.206 20.033-44.206 44.508 0 0 0 0.001 0 0.001v0 651.884c0.17 24.345 19.86 44.035 44.19 44.206h780.884c24.345-0.17 44.035-19.86 44.206-44.19v-0.016zM569.528 409.85l-30.278 4.542-13.928 28.158c-2.521 5.061-7.659 8.478-13.595 8.478-0.011 0-0.021 0-0.032 0h0.002c-0.009 0-0.020 0-0.030 0-5.936 0-11.074-3.416-13.555-8.39l-0.040-0.088-13.625-27.553-30.278-4.542c-7.377-1.097-12.972-7.387-12.972-14.983 0-4.358 1.841-8.286 4.789-11.048l0.008-0.008 22.406-21.8-5.45-30.278c-0.104-0.693-0.163-1.492-0.163-2.306 0-5.188 2.417-9.812 6.185-12.807l0.034-0.026c2.286-1.412 5.057-2.248 8.024-2.248s5.738 0.836 8.090 2.286l-0.067-0.038 27.856 14.533 27.856-14.533c1.977-1.143 4.349-1.817 6.878-1.817 0.030 0 0.060 0 0.090 0h-0.005c0.041 0 0.088-0.001 0.136-0.001 3.337 0 6.436 1.018 9.003 2.762l-0.056-0.036c3.802 3.021 6.219 7.645 6.219 12.833 0 0.813-0.059 1.613-0.174 2.395l0.011-0.089-5.45 30.278 22.406 21.8c2.933 2.767 4.759 6.68 4.759 11.020 0 7.69-5.734 14.042-13.16 15.011l-0.076 0.008zM539.25 374.425c-2.922-2.717-4.745-6.584-4.745-10.876 0-0.864 0.074-1.711 0.216-2.535l-0.013 0.088 4.239-23.617-21.497 11.203c-2.036 1.003-4.431 1.59-6.964 1.59s-4.928-0.587-7.058-1.632l0.095 0.042-21.497-11.203 4.239 23.617c0.129 0.736 0.203 1.583 0.203 2.447 0 4.292-1.822 8.158-4.736 10.867l-0.009 0.008-16.956 16.956 23.617 3.331c5.152 0.644 9.417 3.903 11.468 8.387l0.037 0.091 10.597 21.497 10.597-21.497c2.089-4.575 6.354-7.834 11.434-8.471l0.071-0.007 23.617-3.331zM753.618 555.487l68.731-68.731 1.817 2.119c9.531 9.303 15.443 22.277 15.443 36.632 0 0.108 0 0.216-0.001 0.323v-0.017c0 0.052 0.001 0.113 0.001 0.175 0 8.318-3.354 15.852-8.783 21.324l0.002-0.002-154.418 154.72c-5.437 5.246-12.847 8.478-21.013 8.478-0.064 0-0.128 0-0.192-0.001h-3.926c-14.488-0.024-27.624-5.794-37.255-15.151l0.013 0.012 60.556-60.556-69.034-71.456c-23.552 24.784-56.758 40.201-93.565 40.201-38.537 0-73.127-16.9-96.762-43.694l-0.121-0.14-80.842 60.556 74.787 75.089c-9.499 9.355-22.544 15.133-36.938 15.139h-3.937c-0.143 0.002-0.312 0.004-0.481 0.004-8.167 0-15.579-3.234-21.025-8.49l0.009 0.009-154.418-154.72c-5.427-5.47-8.781-13.005-8.781-21.322 0-0.062 0-0.123 0.001-0.185v0.009c-0.001-0.091-0.001-0.199-0.001-0.307 0-14.355 5.911-27.33 15.432-36.622l0.010-0.010 1.817-2.119 68.731 68.731 112.937-153.509v-39.967l-113.845-153.509-68.731 68.731-1.817-1.817c-9.897-9.391-16.124-22.568-16.35-37.2l-0.001-0.041c0.036-8.271 3.383-15.754 8.783-21.197l154.416-154.416c5.471-5.578 13.076-9.047 21.49-9.083h3.943c0.016 0 0.035 0 0.053 0 14.435 0 27.49 5.907 36.88 15.436l0.006 0.006-60.556 60.556 52.986 52.684c12.397-13.602 30.187-22.104 49.963-22.104 0.105 0 0.21 0 0.315 0.001h121.096c0.020 0 0.045 0 0.069 0 19.941 0 37.899 8.492 50.454 22.058l0.041 0.045 52.986-52.684-60.556-60.556c9.489-9.539 22.624-15.442 37.138-15.442 0.036 0 0.073 0 0.109 0h3.93c0.103-0.001 0.225-0.002 0.347-0.002 8.225 0 15.636 3.489 20.832 9.068l0.016 0.017 154.418 154.418c5.398 5.441 8.745 12.923 8.781 21.188v0.007c0 0.031 0 0.067 0 0.103 0 14.514-5.903 27.65-15.44 37.136l-1.819 1.819-68.731-68.731-112.937 153.509v39.967zM381.502 233.329l-65.703-65.703-9.689 9.689 75.392 102.642zM381.502 483.425l-64.795 88.109 72.062-54.198c-3.723-10.021-6.119-21.603-6.653-33.668l-0.009-0.243zM591.328 229.393c0.001-0.090 0.002-0.196 0.002-0.303 0-11.037-8.947-19.983-19.983-19.983-0.001 0-0.002 0-0.002 0h-121.112c-11.073 0.171-19.983 9.187-19.983 20.284 0 0.001 0 0.002 0 0.002v0 244.646c0.173 22.262 9.284 42.363 23.916 56.919l0.003 0.003c14.56 14.77 34.787 23.92 57.152 23.92 0.026 0 0.052 0 0.078 0h-0.004c30.555-0.054 57.143-16.987 70.942-41.971l0.212-0.418c2.393-4.167 4.456-8.988 5.937-14.058l0.119-0.475c1.604-4.589 2.782-9.932 3.309-15.465l0.022-0.279c0.072-1.221 0.113-2.65 0.113-4.088s-0.041-2.866-0.122-4.284l0.009 0.196zM715.771 177.315l-9.992-9.689-65.098 65.703v46.628zM640.378 483.425c-0.957 13.968-4.095 26.948-9.081 38.967l0.3-0.817 74.787 75.089 9.992-9.689z" />
<glyph unicode="&#xe93b;" glyph-name="Fly-Drone-for-once" d="M997.005 284.815l-107.071-107.071-175.924 239.014v62.483l175.924 238.104 107.071-107.071 3.033 3.033c14.804 14.772 23.962 35.196 23.962 57.759 0 0.061 0 0.123 0 0.184v-0.009c-0.037 12.993-5.238 24.764-13.658 33.374l0.009-0.009-240.531 241.744c-8.541 8.438-20.286 13.649-33.248 13.649-0.041 0-0.082 0-0.124 0h-6.060c-0.015 0-0.032 0-0.049 0-22.603 0-43.067-9.157-57.885-23.963l0.001 0.001 95.545-95.242-110.104-110.104c-36.706 38.532-88.407 62.495-145.704 62.495-60.186 0-114.196-26.439-151.050-68.337l-0.193-0.224-125.877 94.635 116.474 116.777c-14.633 14.798-34.936 23.962-57.38 23.962-0.088 0-0.176 0-0.264 0h-6.052c-0.035 0-0.076 0-0.117 0-12.962 0-24.706-5.212-33.252-13.654l0.005 0.005-240.531-240.834c-8.496-8.579-13.795-20.338-13.952-33.335v-0.030c0.092-22.603 9.226-43.054 23.969-57.94l3.026-3.026 107.071 106.161 175.924-239.014v-62.483l-175.924-239.014-107.071 107.981-3.033-3.033c-14.736-14.88-23.87-35.331-23.962-57.916v-0.018c0.104-12.941 5.42-24.62 13.948-33.057l0.004-0.004 240.531-240.834c8.432-8.613 20.178-13.953 33.172-13.953 0.068 0 0.136 0 0.204 0h6.056c0.074 0 0.162 0 0.25 0 22.444 0 42.748 9.164 57.373 23.955l0.007 0.007-95.242 95.545 82.502 82.199c19.474-21.434 47.447-34.847 78.553-34.882h189.276c31.097 0.115 59.044 13.507 78.484 34.798l0.075 0.083 82.502-82.199-95.242-96.455c14.818-14.806 35.282-23.962 57.884-23.962 0.017 0 0.035 0 0.052 0h6.064c0.057 0 0.125 0 0.193 0 12.993 0 24.74 5.34 33.164 13.945l0.008 0.008 240.531 240.834c8.434 8.45 13.649 20.115 13.649 32.998 0 0.023 0 0.045 0 0.067v-0.003c0.015 0.59 0.024 1.285 0.024 1.983 0 22.12-8.802 42.183-23.094 56.88l0.018-0.019zM309.991 216.265l-102.218-102.218-15.166 15.166 117.384 159.545zM309.991 606.028l-99.791 137.1 111.924-84.322c-5.888-15.516-9.891-33.476-11.19-52.182l-0.033-0.595zM636.967 210.199c0-16.752-13.58-30.332-30.332-30.332v0h-189.27c-16.752 0-30.332 13.58-30.332 30.332v0 380.967c-0.001 0.205-0.002 0.447-0.002 0.69 0 69.687 56.493 126.18 126.18 126.18 47.713 0 89.241-26.483 110.687-65.551l0.329-0.655c3.545-6.463 6.738-13.999 9.169-21.87l0.234-0.879c2.467-7.153 4.289-15.491 5.121-24.119l0.035-0.45c0-4.246 0-8.493 0-12.739zM697.63 665.175l116.777 116.474 15.166-15.166-118.294-160.758c-0.76 21.638-4.922 42.070-11.964 61.106l0.438-1.353zM814.408 113.744l-102.521 102.218v72.796l117.687-159.848zM518.066 383.697c-27.602 7.583-27.602 12.739-27.602 20.019s11.223 13.649 20.626 13.649c17.289 0 22.445-6.673 24.872-16.379l3.033-11.526h41.858v16.379c-2.587 25.228-20.859 45.552-44.798 51.182l-0.397 0.079v21.839h-45.194v-21.839c-25.352-5.725-44.040-27.944-44.284-54.57v-0.027c0-40.341 30.332-52.171 62.18-60.664s30.332-17.289 30.332-25.479c0-15.469-14.559-18.806-26.692-18.806-0.577-0.047-1.25-0.073-1.929-0.073-13.243 0-24.126 10.103-25.362 23.022l-0.008 0.103-2.427 12.436h-42.464l1.517-16.379c1.367-28.422 21.435-51.793 48.104-58.151l0.427-0.086v-26.389h43.678v25.782c28.197 4.386 49.522 28.493 49.522 57.581 0 1.084-0.030 2.162-0.088 3.231l0.006-0.149c0.607 34.882-18.806 53.991-64.91 65.213zM511.697 679.128c-0.090 0-0.196 0.001-0.303 0.001-48.245 0-87.355-39.11-87.355-87.355s39.11-87.355 87.355-87.355c48.245 0 87.355 39.11 87.355 87.355 0 0.106 0 0.213-0.001 0.319v-0.016c-0.172 48.008-39.044 86.88-87.036 87.052h-0.016zM511.697 535.052c-0.090-0.001-0.197-0.001-0.303-0.001-31.493 0-57.024 25.53-57.024 57.024s25.53 57.024 57.024 57.024c31.493 0 57.023-25.53 57.024-57.023v0c-0.171-31.257-25.464-56.549-56.704-56.72h-0.016zM492.891 610.578h11.223v-59.45h19.716v76.436h-30.938v-16.986z" />
</font>
</defs>
</svg>
