<svg id="Layer_1" data-name="Layer 1" xmlns="http://www.w3.org/2000/svg" viewBox="0 0 16.78 20.79"><title>android</title><path d="M10.89,2.07,11.8.55a.36.36,0,1,0-.62-.37l-1,1.6a5.39,5.39,0,0,0-3.66,0L5.6.18A.36.36,0,1,0,5,.55l.91,1.52a5.48,5.48,0,0,0-3,4.86.37.37,0,0,0,.36.37H13.5a.37.37,0,0,0,.36-.37,5.48,5.48,0,0,0-3-4.86ZM3.66,6.57a4.74,4.74,0,0,1,9.46,0Zm0,0" transform="translate(0 0)"/><path d="M10.93,4.14h-.48a.24.24,0,0,0-.24.24v.49a.24.24,0,0,0,.24.24h.49a.24.24,0,0,0,.24-.24V4.38a.25.25,0,0,0-.25-.24Zm0,0" transform="translate(0 0)"/><path d="M6.32,4.14H5.84a.24.24,0,0,0-.24.24v.49a.24.24,0,0,0,.24.24h.48a.24.24,0,0,0,.24-.24V4.38a.24.24,0,0,0-.24-.24Zm0,0" transform="translate(0 0)"/><path d="M13.5,7.66H3.28A.36.36,0,0,0,2.92,8v7.35a1.76,1.76,0,0,0,1.76,1.76h.43v2.19a1.46,1.46,0,1,0,2.92,0V17.14h.72v2.19a1.46,1.46,0,0,0,2.92,0V17.14h.43a1.76,1.76,0,0,0,1.76-1.76V8a.36.36,0,0,0-.36-.37Zm-.37,7.72a1,1,0,0,1-1,1h-.79a.38.38,0,0,0-.37.37v2.55a.73.73,0,1,1-1.46,0V16.78a.37.37,0,0,0-.36-.37H7.66a.38.38,0,0,0-.37.37v2.55a.73.73,0,1,1-1.45,0V16.78a.38.38,0,0,0-.37-.37H4.68a1,1,0,0,1-1-1v-7h9.48Zm0,0" transform="translate(0 0)"/><path d="M15.5,7.66a1.28,1.28,0,0,0-1.28,1.28V14a1.28,1.28,0,0,0,2.56,0V8.94A1.28,1.28,0,0,0,15.5,7.66ZM16.05,14a.55.55,0,0,1-.55.55A.55.55,0,0,1,15,14V8.94a.55.55,0,0,1,.54-.55.55.55,0,0,1,.55.55Zm0,0" transform="translate(0 0)"/><path d="M1.28,7.66A1.28,1.28,0,0,0,0,8.94V14a1.28,1.28,0,1,0,2.55,0V8.94A1.27,1.27,0,0,0,1.28,7.66ZM1.82,14A.55.55,0,1,1,.73,14V8.94a.55.55,0,1,1,1.09,0Zm0,0" transform="translate(0 0)"/></svg>