<svg id="Layer_1" data-name="Layer 1" xmlns="http://www.w3.org/2000/svg" viewBox="0 0 16.38 20.82"><title>apple</title><path d="M12.45.42l0-.42L12,0a5.14,5.14,0,0,0-4.36,5l0,.45.45,0S12.7,5.11,12.45.42Zm-.79.51A3.7,3.7,0,0,1,8.49,4.61,4.21,4.21,0,0,1,11.66.93Zm0,0"/><path d="M16.35,15l-.25-.08A3.68,3.68,0,0,1,15.62,8L16,7.84l-.21-.37a4.74,4.74,0,0,0-2.79-2,6.46,6.46,0,0,0-4.84,1C7.42,6,4.94,4.65,3,6c-.38.21-4.48,2.66-2.35,9.29.07.15,1.55,3.63,3.31,4.94A2.41,2.41,0,0,0,7,20.26c.24-.1,1.85-.72,2.87,0a3.2,3.2,0,0,0,1.73.55,2.06,2.06,0,0,0,1.53-.65,12.32,12.32,0,0,0,3.22-4.74l0-.08ZM12.6,19.58l0,0c-.87.91-2.2,0-2.25,0a2.86,2.86,0,0,0-1.69-.49,5.25,5.25,0,0,0-2,.43l-.06,0a1.61,1.61,0,0,1-2.12,0l0,0c-1.59-1.16-3-4.59-3-4.59-2-6.2,1.83-8.23,2-8.32l0,0c1.86-1.25,4.52.55,4.54.57l.22.15.22-.13a5.82,5.82,0,0,1,4.44-1,3.9,3.9,0,0,1,2.06,1.34,4.47,4.47,0,0,0,.6,8,11.79,11.79,0,0,1-2.87,4.09Zm0,0"/></svg>