<svg id="Layer_1" data-name="Layer 1" xmlns="http://www.w3.org/2000/svg" viewBox="0 0 25.68 25.68"> <title>setting</title><path class="cls-1" d="M25.68,9.6h-5l3.56-3.55L19.63,1.47,16.08,5V0H9.6V5L6.05,1.47,1.47,6.05,5,9.6H0v6.48H5L1.47,19.63l4.58,4.58L9.6,20.65v5h6.48v-5l3.55,3.56,4.58-4.58-3.56-3.55h5Zm-2.14,4.34H20.65a2.14,2.14,0,0,0-1.51,3.65l2,2-1.55,1.55-2-2a2.14,2.14,0,0,0-1.51-.63,2.16,2.16,0,0,0-2.14,2.14v2.89h-2.2V20.65a2.14,2.14,0,0,0-3.65-1.51l-2,2L4.5,19.63l2-2A2.14,2.14,0,0,0,5,13.94H2.14v-2.2H5A2.14,2.14,0,0,0,6.54,8.09l-2-2L6.05,4.5l2,2a2.14,2.14,0,0,0,1.51.63A2.16,2.16,0,0,0,11.74,5V2.14h2.2V5a2.14,2.14,0,0,0,3.65,1.51l2-2,1.55,1.55-2,2a2.14,2.14,0,0,0,1.51,3.65h2.89Z"/><path class="cls-1" d="M12.84,9.22a3.62,3.62,0,1,0,3.62,3.62A3.62,3.62,0,0,0,12.84,9.22Zm0,5.81A2.19,2.19,0,1,1,15,12.84,2.19,2.19,0,0,1,12.84,15Z"/></svg>